<svg width="77" height="77" viewBox="0 0 77 77" fill="none" xmlns="http://www.w3.org/2000/svg">
<rect width="76.0609" height="76.0609" fill="#FA4781"/>
<path d="M43.9797 11.2005H61.1944V52.4141L43.9797 11.2005Z" fill="#23163B"/>
<path d="M31.8512 11.2005H14.6265V52.4141L31.8512 11.2005Z" fill="#23163B"/>
<path d="M30.3884 44.1221L37.9174 26.3866L48.8846 52.4119H41.6987L38.418 44.1221H30.3884Z" fill="#23163B"/>
<path d="M16.8254 67.708H13.7433L13.1574 69.4658H11.2883L14.464 60.9345H16.093L19.2863 69.4658H17.4172L16.8254 67.708ZM14.218 66.2841H16.3508L15.2785 63.0908L14.218 66.2841ZM19.7082 66.249C19.7082 65.2607 19.9289 64.4736 20.3703 63.8877C20.8156 63.3017 21.423 63.0088 22.1926 63.0088C22.8097 63.0088 23.3195 63.2392 23.7219 63.7002V60.4658H25.4211V69.4658H23.8918L23.8097 68.792C23.3879 69.3193 22.8449 69.583 22.1808 69.583C21.4347 69.583 20.8351 69.29 20.382 68.7041C19.9328 68.1142 19.7082 67.2959 19.7082 66.249ZM21.4015 66.372C21.4015 66.9658 21.5051 67.4209 21.7121 67.7373C21.9191 68.0537 22.2199 68.2119 22.6144 68.2119C23.1379 68.2119 23.507 67.9912 23.7219 67.5498V65.0478C23.5109 64.6064 23.1457 64.3857 22.6262 64.3857C21.8097 64.3857 21.4015 65.0478 21.4015 66.372ZM26.4699 66.2373C26.4699 65.6084 26.591 65.0478 26.8332 64.5556C27.0754 64.0634 27.423 63.6826 27.8762 63.4131C28.3332 63.1435 28.8625 63.0088 29.464 63.0088C30.3195 63.0088 31.0168 63.2705 31.5558 63.7939C32.0988 64.3174 32.4015 65.0283 32.464 65.9267L32.4758 66.3603C32.4758 67.333 32.2043 68.1142 31.6613 68.7041C31.1183 69.29 30.3898 69.583 29.4758 69.583C28.5617 69.583 27.8312 69.29 27.2844 68.7041C26.7414 68.1181 26.4699 67.3213 26.4699 66.3134V66.2373ZM28.1633 66.3603C28.1633 66.9619 28.2765 67.4228 28.5031 67.7431C28.7297 68.0595 29.0539 68.2177 29.4758 68.2177C29.8859 68.2177 30.2062 68.0615 30.4367 67.749C30.6672 67.4326 30.7824 66.9287 30.7824 66.2373C30.7824 65.6474 30.6672 65.1904 30.4367 64.8662C30.2062 64.542 29.882 64.3799 29.464 64.3799C29.05 64.3799 28.7297 64.542 28.5031 64.8662C28.2765 65.1865 28.1633 65.6845 28.1633 66.3603ZM39.2316 66.3545C39.2316 67.3701 39.0148 68.1631 38.5812 68.7334C38.1476 69.2998 37.5422 69.583 36.7648 69.583C36.0773 69.583 35.5285 69.3193 35.1183 68.792L35.0422 69.4658H33.5187V60.4658H35.2121V63.6943C35.6027 63.2373 36.1164 63.0088 36.7531 63.0088C37.5265 63.0088 38.132 63.2939 38.5695 63.8642C39.0109 64.4306 39.2316 65.2295 39.2316 66.2607V66.3545ZM37.5383 66.2314C37.5383 65.5908 37.4367 65.124 37.2336 64.831C37.0305 64.5341 36.7277 64.3857 36.3254 64.3857C35.7863 64.3857 35.4152 64.6064 35.2121 65.0478V67.5498C35.4191 67.9951 35.7941 68.2177 36.3371 68.2177C36.884 68.2177 37.2433 67.9482 37.4152 67.4091C37.4972 67.1513 37.5383 66.7588 37.5383 66.2314ZM43.1984 69.583C42.2687 69.583 41.5109 69.2978 40.925 68.7275C40.343 68.1572 40.0519 67.3974 40.0519 66.4482V66.2841C40.0519 65.6474 40.175 65.0791 40.4211 64.5791C40.6672 64.0752 41.0148 63.6884 41.464 63.4189C41.9172 63.1455 42.4328 63.0088 43.0109 63.0088C43.8781 63.0088 44.5597 63.2822 45.0558 63.8291C45.5558 64.3759 45.8058 65.1513 45.8058 66.1552V66.8466H41.7687C41.8234 67.2607 41.9875 67.5927 42.2609 67.8427C42.5383 68.0927 42.8879 68.2177 43.3097 68.2177C43.9621 68.2177 44.4719 67.9814 44.839 67.5088L45.6711 68.4404C45.4172 68.7998 45.0734 69.081 44.6398 69.2841C44.2062 69.4834 43.7258 69.583 43.1984 69.583ZM43.0051 64.3799C42.6691 64.3799 42.3957 64.4931 42.1847 64.7197C41.9777 64.9463 41.8449 65.2705 41.7863 65.6924H44.1418V65.5576C44.134 65.1826 44.0324 64.8935 43.8371 64.6904C43.6418 64.4834 43.3644 64.3799 43.0051 64.3799ZM56.5695 66.624C56.5031 67.542 56.1633 68.2646 55.55 68.792C54.9406 69.3193 54.1359 69.583 53.1359 69.583C52.0422 69.583 51.1808 69.2158 50.5519 68.4814C49.9269 67.7431 49.6144 66.7314 49.6144 65.4463V64.9248C49.6144 64.1045 49.759 63.3818 50.048 62.7568C50.3371 62.1318 50.7492 61.6533 51.2844 61.3213C51.8234 60.9853 52.4484 60.8174 53.1594 60.8174C54.1437 60.8174 54.9367 61.081 55.5383 61.6084C56.1398 62.1357 56.4875 62.8759 56.5812 63.8291H54.8234C54.7805 63.2783 54.6262 62.8799 54.3605 62.6338C54.0988 62.3838 53.6984 62.2588 53.1594 62.2588C52.5734 62.2588 52.134 62.4697 51.841 62.8916C51.5519 63.3095 51.4035 63.9599 51.3957 64.8427V65.4873C51.3957 66.4091 51.5344 67.083 51.8117 67.5088C52.093 67.9345 52.5344 68.1474 53.1359 68.1474C53.6789 68.1474 54.0832 68.0244 54.3488 67.7783C54.6183 67.5283 54.7726 67.1435 54.8117 66.624H56.5695ZM64.4211 66.624C64.3547 67.542 64.0148 68.2646 63.4015 68.792C62.7922 69.3193 61.9875 69.583 60.9875 69.583C59.8937 69.583 59.0324 69.2158 58.4035 68.4814C57.7785 67.7431 57.466 66.7314 57.466 65.4463V64.9248C57.466 64.1045 57.6105 63.3818 57.8996 62.7568C58.1887 62.1318 58.6008 61.6533 59.1359 61.3213C59.675 60.9853 60.3 60.8174 61.0109 60.8174C61.9953 60.8174 62.7883 61.081 63.3898 61.6084C63.9914 62.1357 64.339 62.8759 64.4328 63.8291H62.675C62.632 63.2783 62.4777 62.8799 62.2121 62.6338C61.9504 62.3838 61.55 62.2588 61.0109 62.2588C60.425 62.2588 59.9855 62.4697 59.6926 62.8916C59.4035 63.3095 59.2551 63.9599 59.2472 64.8427V65.4873C59.2472 66.4091 59.3859 67.083 59.6633 67.5088C59.9445 67.9345 60.3859 68.1474 60.9875 68.1474C61.5305 68.1474 61.9347 68.0244 62.2004 67.7783C62.4699 67.5283 62.6242 67.1435 62.6633 66.624H64.4211Z" fill="#23163B"/>
</svg>
