<svg width="77" height="75" viewBox="0 0 77 75" fill="none" xmlns="http://www.w3.org/2000/svg">
<path d="M76.8213 23.7791C76.6808 22.9541 76.566 22.3104 75.6725 21.776C39.1373 0.55426 39.6542 -1.02698 37.2832 0.376136C9.59384 17.2323 1.88728 20.9916 0.779961 22.3041C-0.225243 23.3135 0.234279 24.8604 0.234279 48.2352C0.167265 50.8946 24.9432 65.3039 36.9928 74.4976C38.0555 75.2382 39.3926 75.1195 40.1935 74.407C76.0107 49.5446 76.8819 50.5446 76.8213 48.2352C76.8213 48.2352 76.783 23.4635 76.8213 23.7791ZM72.0346 44.0634L59.6658 36.6915L72.0346 28.2635V44.0634ZM55.195 34.0259L40.9211 25.5197V6.5511L70.0433 23.9104L55.195 34.0259ZM38.5278 45.379L26.159 36.9509L38.5278 29.5791L50.8966 36.9509L38.5278 45.379ZM36.1344 6.54798V25.5291C30.5851 28.901 25.8941 31.7166 21.9307 34.0728L7.01223 23.9104L36.1344 6.54798ZM17.444 36.729C11.4638 40.2509 7.55791 42.4884 5.02096 43.979V28.2635L17.444 36.729ZM21.6882 39.6165L36.1344 49.4571V68.2039L7.01223 48.3634L21.6882 39.6165ZM40.9211 68.207V49.4602L55.3673 39.6197L70.0433 48.3665L40.9211 68.207Z" fill="white"/>
</svg>
