<svg width="77" height="77" viewBox="0 0 77 77" fill="none" xmlns="http://www.w3.org/2000/svg">
<rect y="0.246887" width="76.0609" height="76.0609" fill="#FA4781"/>
<path d="M34.1808 66.8709C34.1144 67.7889 33.7746 68.5115 33.1613 69.0389C32.5519 69.5662 31.7472 69.8299 30.7472 69.8299C29.6535 69.8299 28.7922 69.4627 28.1633 68.7283C27.5383 67.9901 27.2258 66.9783 27.2258 65.6932V65.1717C27.2258 64.3514 27.3703 63.6287 27.6594 63.0037C27.9484 62.3787 28.3605 61.9002 28.8957 61.5682C29.4347 61.2322 30.0597 61.0643 30.7707 61.0643C31.7551 61.0643 32.548 61.3279 33.1496 61.8553C33.7512 62.3826 34.0988 63.1229 34.1926 64.076H32.4347C32.3918 63.5252 32.2375 63.1268 31.9719 62.8807C31.7101 62.6307 31.3097 62.5057 30.7707 62.5057C30.1847 62.5057 29.7453 62.7166 29.4523 63.1385C29.1633 63.5565 29.0148 64.2068 29.007 65.0897V65.7342C29.007 66.6561 29.1457 67.3299 29.423 67.7557C29.7043 68.1815 30.1457 68.3943 30.7472 68.3943C31.2902 68.3943 31.6945 68.2713 31.9601 68.0252C32.2297 67.7752 32.384 67.3904 32.423 66.8709H34.1808ZM39.759 67.4744C39.759 67.1424 39.6418 66.8885 39.4074 66.7127C39.173 66.533 38.7512 66.3455 38.1418 66.1502C37.5324 65.951 37.05 65.7557 36.6945 65.5643C35.7258 65.0408 35.2414 64.3358 35.2414 63.449C35.2414 62.9881 35.3703 62.5779 35.6281 62.2186C35.8898 61.8553 36.2629 61.5721 36.7472 61.369C37.2355 61.1658 37.7824 61.0643 38.3879 61.0643C38.9972 61.0643 39.5402 61.1756 40.0168 61.3983C40.4933 61.617 40.8625 61.9276 41.1242 62.3299C41.3898 62.7322 41.5226 63.1893 41.5226 63.701H39.7648C39.7648 63.3104 39.6418 63.0076 39.3957 62.7928C39.1496 62.574 38.8039 62.4647 38.3586 62.4647C37.9289 62.4647 37.5949 62.5565 37.3566 62.7401C37.1183 62.9197 36.9992 63.158 36.9992 63.4549C36.9992 63.7322 37.1379 63.9647 37.4152 64.1522C37.6965 64.3397 38.1086 64.5154 38.6515 64.6795C39.6515 64.9803 40.3801 65.3533 40.8371 65.7986C41.2941 66.244 41.5226 66.7986 41.5226 67.4627C41.5226 68.201 41.2433 68.7811 40.6847 69.2029C40.1262 69.6209 39.3742 69.8299 38.4289 69.8299C37.7726 69.8299 37.175 69.7108 36.6359 69.4725C36.0969 69.2303 35.6847 68.9002 35.3996 68.4822C35.1183 68.0643 34.9777 67.5799 34.9777 67.0291H36.7414C36.7414 67.9705 37.3039 68.4412 38.4289 68.4412C38.8469 68.4412 39.173 68.3572 39.4074 68.1893C39.6418 68.0174 39.759 67.7791 39.759 67.4744ZM47.1418 67.4744C47.1418 67.1424 47.0246 66.8885 46.7902 66.7127C46.5558 66.533 46.134 66.3455 45.5246 66.1502C44.9152 65.951 44.4328 65.7557 44.0773 65.5643C43.1086 65.0408 42.6242 64.3358 42.6242 63.449C42.6242 62.9881 42.7531 62.5779 43.0109 62.2186C43.2726 61.8553 43.6457 61.5721 44.1301 61.369C44.6183 61.1658 45.1652 61.0643 45.7707 61.0643C46.3801 61.0643 46.923 61.1756 47.3996 61.3983C47.8762 61.617 48.2453 61.9276 48.507 62.3299C48.7726 62.7322 48.9055 63.1893 48.9055 63.701H47.1476C47.1476 63.3104 47.0246 63.0076 46.7785 62.7928C46.5324 62.574 46.1867 62.4647 45.7414 62.4647C45.3117 62.4647 44.9777 62.5565 44.7394 62.7401C44.5012 62.9197 44.382 63.158 44.382 63.4549C44.382 63.7322 44.5207 63.9647 44.798 64.1522C45.0793 64.3397 45.4914 64.5154 46.0344 64.6795C47.0344 64.9803 47.7629 65.3533 48.2199 65.7986C48.6769 66.244 48.9055 66.7986 48.9055 67.4627C48.9055 68.201 48.6262 68.7811 48.0676 69.2029C47.509 69.6209 46.757 69.8299 45.8117 69.8299C45.1555 69.8299 44.5578 69.7108 44.0187 69.4725C43.4797 69.2303 43.0676 68.9002 42.7824 68.4822C42.5012 68.0643 42.3605 67.5799 42.3605 67.0291H44.1242C44.1242 67.9705 44.6867 68.4412 45.8117 68.4412C46.2297 68.4412 46.5558 68.3572 46.7902 68.1893C47.0246 68.0174 47.1418 67.7791 47.1418 67.4744Z" fill="#23163B"/>
<path d="M57.7372 11.1314L54.0952 51.9305L37.7245 56.469L21.3989 51.9369L17.7608 11.1314H57.7372Z" fill="#23163B"/>
<path d="M50.9773 49.3326L54.0896 14.4679H37.749V53L50.9773 49.3326Z" fill="#23163B"/>
<path d="M26.1011 29.6021L26.5496 34.6066H37.749V29.6021H26.1011Z" fill="#FA4781"/>
<path d="M37.749 19.4726H37.7317H25.1998L25.6547 24.4772H37.749V19.4726Z" fill="#FA4781"/>
<path d="M37.749 47.8065V42.5996L37.727 42.6054L32.1534 41.1004L31.797 37.109H29.0887H26.7732L27.4743 44.967L37.7259 47.8129L37.749 47.8065Z" fill="#FA4781"/>
<path d="M43.8943 34.6066L43.3134 41.0972L37.7317 42.6038V47.8105L47.9914 44.967L48.0667 44.1215L49.2427 30.9459L49.3649 29.602L50.2683 19.4726H37.7317V24.4772H44.7837L44.3283 29.602H37.7317V34.6066H43.8943Z" fill="#FA4781"/>
</svg>
