<svg width="77" height="77" viewBox="0 0 77 77" fill="none" xmlns="http://www.w3.org/2000/svg">
<rect width="76.0609" height="76.0609" fill="#FA4781"/>
<path d="M23.5312 65.3027H20.1562V67.5879H24.1172V69H18.3984V60.4688H24.1055V61.8926H20.1562V63.9258H23.5312V65.3027ZM27.4512 64.5527L28.5176 62.6602H30.3281L28.5234 65.7656L30.4043 69H28.5879L27.457 67.0078L26.332 69H24.5098L26.3906 65.7656L24.5918 62.6602H26.4082L27.4512 64.5527ZM36.8496 65.8887C36.8496 66.8652 36.627 67.6484 36.1816 68.2383C35.7402 68.8242 35.1426 69.1172 34.3887 69.1172C33.748 69.1172 33.2305 68.8945 32.8359 68.4492V71.4375H31.1426V62.6602H32.7129L32.7715 63.2812C33.1816 62.7891 33.7168 62.543 34.377 62.543C35.1582 62.543 35.7656 62.832 36.1992 63.4102C36.6328 63.9883 36.8496 64.7852 36.8496 65.8008V65.8887ZM35.1562 65.7656C35.1562 65.1758 35.0508 64.7207 34.8398 64.4004C34.6328 64.0801 34.3301 63.9199 33.9316 63.9199C33.4004 63.9199 33.0352 64.123 32.8359 64.5293V67.125C33.043 67.543 33.4121 67.752 33.9434 67.752C34.752 67.752 35.1562 67.0898 35.1562 65.7656ZM41.4668 64.248C41.2363 64.2168 41.0332 64.2012 40.8574 64.2012C40.2168 64.2012 39.7969 64.418 39.5977 64.8516V69H37.9043V62.6602H39.5039L39.5508 63.416C39.8906 62.834 40.3613 62.543 40.9629 62.543C41.1504 62.543 41.3262 62.5684 41.4902 62.6191L41.4668 64.248ZM45.0879 69.1172C44.1582 69.1172 43.4004 68.832 42.8145 68.2617C42.2324 67.6914 41.9414 66.9316 41.9414 65.9824V65.8184C41.9414 65.1816 42.0645 64.6133 42.3105 64.1133C42.5566 63.6094 42.9043 63.2227 43.3535 62.9531C43.8066 62.6797 44.3223 62.543 44.9004 62.543C45.7676 62.543 46.4492 62.8164 46.9453 63.3633C47.4453 63.9102 47.6953 64.6855 47.6953 65.6895V66.3809H43.6582C43.7129 66.7949 43.877 67.127 44.1504 67.377C44.4277 67.627 44.7773 67.752 45.1992 67.752C45.8516 67.752 46.3613 67.5156 46.7285 67.043L47.5605 67.9746C47.3066 68.334 46.9629 68.6152 46.5293 68.8184C46.0957 69.0176 45.6152 69.1172 45.0879 69.1172ZM44.8945 63.9141C44.5586 63.9141 44.2852 64.0273 44.0742 64.2539C43.8672 64.4805 43.7344 64.8047 43.6758 65.2266H46.0312V65.0918C46.0234 64.7168 45.9219 64.4277 45.7266 64.2246C45.5312 64.0176 45.2539 63.9141 44.8945 63.9141ZM52.0957 67.248C52.0957 67.041 51.9922 66.8789 51.7852 66.7617C51.582 66.6406 51.2539 66.5332 50.8008 66.4395C49.293 66.123 48.5391 65.4824 48.5391 64.5176C48.5391 63.9551 48.7715 63.4863 49.2363 63.1113C49.7051 62.7324 50.3164 62.543 51.0703 62.543C51.875 62.543 52.5176 62.7324 52.998 63.1113C53.4824 63.4902 53.7246 63.9824 53.7246 64.5879H52.0312C52.0312 64.3457 51.9531 64.1465 51.7969 63.9902C51.6406 63.8301 51.3965 63.75 51.0645 63.75C50.7793 63.75 50.5586 63.8145 50.4023 63.9434C50.2461 64.0723 50.168 64.2363 50.168 64.4355C50.168 64.623 50.2559 64.7754 50.4316 64.8926C50.6113 65.0059 50.9121 65.1055 51.334 65.1914C51.7559 65.2734 52.1113 65.3672 52.4004 65.4727C53.2949 65.8008 53.7422 66.3691 53.7422 67.1777C53.7422 67.7559 53.4941 68.2246 52.998 68.584C52.502 68.9395 51.8613 69.1172 51.0762 69.1172C50.5449 69.1172 50.0723 69.0234 49.6582 68.8359C49.248 68.6445 48.9258 68.3848 48.6914 68.0566C48.457 67.7246 48.3398 67.3672 48.3398 66.9844H49.9453C49.9609 67.2852 50.0723 67.5156 50.2793 67.6758C50.4863 67.8359 50.7637 67.916 51.1113 67.916C51.4355 67.916 51.6797 67.8555 51.8438 67.7344C52.0117 67.6094 52.0957 67.4473 52.0957 67.248ZM58.2715 67.248C58.2715 67.041 58.168 66.8789 57.9609 66.7617C57.7578 66.6406 57.4297 66.5332 56.9766 66.4395C55.4688 66.123 54.7148 65.4824 54.7148 64.5176C54.7148 63.9551 54.9473 63.4863 55.4121 63.1113C55.8809 62.7324 56.4922 62.543 57.2461 62.543C58.0508 62.543 58.6934 62.7324 59.1738 63.1113C59.6582 63.4902 59.9004 63.9824 59.9004 64.5879H58.207C58.207 64.3457 58.1289 64.1465 57.9727 63.9902C57.8164 63.8301 57.5723 63.75 57.2402 63.75C56.9551 63.75 56.7344 63.8145 56.5781 63.9434C56.4219 64.0723 56.3438 64.2363 56.3438 64.4355C56.3438 64.623 56.4316 64.7754 56.6074 64.8926C56.7871 65.0059 57.0879 65.1055 57.5098 65.1914C57.9316 65.2734 58.2871 65.3672 58.5762 65.4727C59.4707 65.8008 59.918 66.3691 59.918 67.1777C59.918 67.7559 59.6699 68.2246 59.1738 68.584C58.6777 68.9395 58.0371 69.1172 57.252 69.1172C56.7207 69.1172 56.248 69.0234 55.834 68.8359C55.4238 68.6445 55.1016 68.3848 54.8672 68.0566C54.6328 67.7246 54.5156 67.3672 54.5156 66.9844H56.1211C56.1367 67.2852 56.248 67.5156 56.4551 67.6758C56.6621 67.8359 56.9395 67.916 57.2871 67.916C57.6113 67.916 57.8555 67.8555 58.0195 67.7344C58.1875 67.6094 58.2715 67.4473 58.2715 67.248Z" fill="#23163B"/>
<path d="M48.4586 32.8018H31.2142V47.8432H51.0415V50.4767H28.0996V13.6077H50.9148V16.2665H31.2142V30.1683H48.4586V32.8018Z" fill="#23163B"/>
</svg>
