<svg width="78" height="77" viewBox="0 0 78 77" fill="none" xmlns="http://www.w3.org/2000/svg">
<rect x="0.975586" width="76.0609" height="76.0609" fill="#FA4781"/>
<path d="M28.1779 65.9795H24.8029V69.4658H23.0451V60.9345H28.5998V62.3584H24.8029V64.5615H28.1779V65.9795ZM31.2951 69.4658H29.5959V63.1259H31.2951V69.4658ZM29.4963 61.4853C29.4963 61.2314 29.5803 61.0224 29.7482 60.8584C29.9201 60.6943 30.1525 60.6123 30.4455 60.6123C30.7346 60.6123 30.965 60.6943 31.1369 60.8584C31.3088 61.0224 31.3947 61.2314 31.3947 61.4853C31.3947 61.7431 31.3068 61.9541 31.131 62.1181C30.9592 62.2822 30.7306 62.3642 30.4455 62.3642C30.1603 62.3642 29.9299 62.2822 29.7541 62.1181C29.5822 61.9541 29.4963 61.7431 29.4963 61.4853ZM32.4494 66.249C32.4494 65.2763 32.6799 64.4931 33.1408 63.8994C33.6056 63.3056 34.2306 63.0088 35.0158 63.0088C35.7111 63.0088 36.2521 63.247 36.6389 63.7236L36.7092 63.1259H38.2443V69.2549C38.2443 69.8095 38.1174 70.292 37.8635 70.7021C37.6135 71.1123 37.2599 71.4248 36.8029 71.6396C36.3459 71.8545 35.8107 71.9619 35.1974 71.9619C34.7326 71.9619 34.2795 71.8681 33.8381 71.6806C33.3967 71.497 33.0627 71.2588 32.8361 70.9658L33.5861 69.9345C34.008 70.4072 34.5197 70.6435 35.1213 70.6435C35.5705 70.6435 35.9201 70.5224 36.1701 70.2802C36.4201 70.042 36.5451 69.7021 36.5451 69.2607V68.9209C36.1545 69.3623 35.6408 69.583 35.0041 69.583C34.2424 69.583 33.6252 69.2861 33.1525 68.6924C32.6838 68.0947 32.4494 67.3037 32.4494 66.3193V66.249ZM34.1428 66.372C34.1428 66.9463 34.258 67.3974 34.4885 67.7256C34.7189 68.0498 35.0353 68.2119 35.4377 68.2119C35.9533 68.2119 36.3224 68.0185 36.5451 67.6318V64.9658C36.3185 64.5791 35.9533 64.3857 35.4494 64.3857C35.0431 64.3857 34.7228 64.5517 34.4885 64.8838C34.258 65.2158 34.1428 65.7119 34.1428 66.372ZM41.1389 63.1259L41.1916 63.8349C41.6408 63.2841 42.2482 63.0088 43.0139 63.0088C43.8303 63.0088 44.3908 63.331 44.6955 63.9756C45.1408 63.331 45.7756 63.0088 46.5998 63.0088C47.2873 63.0088 47.799 63.2099 48.1349 63.6123C48.4709 64.0107 48.6389 64.6123 48.6389 65.417V69.4658H46.9396V65.4228C46.9396 65.0634 46.8693 64.8017 46.7287 64.6377C46.5881 64.4697 46.34 64.3857 45.9846 64.3857C45.4767 64.3857 45.1252 64.6279 44.9299 65.1123L44.9357 69.4658H43.2424V65.4287C43.2424 65.0615 43.1701 64.7959 43.0256 64.6318C42.881 64.4677 42.6349 64.3857 42.2873 64.3857C41.8068 64.3857 41.4592 64.5849 41.2443 64.9834V69.4658H39.551V63.1259H41.1389ZM53.6193 69.4658C53.5412 69.3134 53.4846 69.124 53.4494 68.8974C53.0392 69.3545 52.506 69.583 51.8498 69.583C51.2287 69.583 50.7131 69.4033 50.3029 69.0439C49.8967 68.6845 49.6935 68.2314 49.6935 67.6845C49.6935 67.0127 49.9416 66.497 50.4377 66.1377C50.9377 65.7783 51.6584 65.5966 52.5998 65.5927H53.3791V65.2295C53.3791 64.9365 53.3029 64.7021 53.1506 64.5263C53.0021 64.3506 52.7658 64.2627 52.4416 64.2627C52.1564 64.2627 51.9318 64.331 51.7678 64.4677C51.6076 64.6045 51.5275 64.792 51.5275 65.0302H49.8342C49.8342 64.6631 49.9474 64.3232 50.174 64.0107C50.4006 63.6982 50.7209 63.4541 51.1349 63.2783C51.549 63.0986 52.0139 63.0088 52.5295 63.0088C53.3107 63.0088 53.9299 63.206 54.3869 63.6006C54.8478 63.9912 55.0783 64.542 55.0783 65.2529V68.0009C55.0822 68.6025 55.1662 69.0576 55.3303 69.3662V69.4658H53.6193ZM52.2189 68.2881C52.4689 68.2881 52.6994 68.2334 52.9103 68.124C53.1213 68.0107 53.2775 67.8603 53.3791 67.6728V66.583H52.7463C51.8986 66.583 51.4474 66.8759 51.3928 67.4619L51.3869 67.5615C51.3869 67.7724 51.4611 67.9463 51.6096 68.083C51.758 68.2197 51.9611 68.2881 52.2189 68.2881Z" fill="#23163B"/>
<g clip-path="url(#clip0)">
<path d="M30.9694 55.317C35.3102 55.317 38.8332 51.8062 38.8332 47.4804V39.6438H30.9694C26.6286 39.6438 23.1056 43.1546 23.1056 47.4804C23.1056 51.8062 26.6286 55.317 30.9694 55.317Z" fill="#23163B"/>
<path d="M23.1056 31.8072C23.1056 27.4815 26.6286 23.9707 30.9694 23.9707H38.8332V39.6438H30.9694C26.6286 39.6438 23.1056 36.133 23.1056 31.8072Z" fill="#23163B"/>
<path d="M23.1059 16.1341C23.1059 11.8083 26.6289 8.29755 30.9697 8.29755H38.8335V23.9707H30.9697C26.6289 23.9707 23.1059 20.4599 23.1059 16.1341Z" fill="#23163B"/>
<path d="M38.8332 8.29755H46.697C51.0378 8.29755 54.5608 11.8083 54.5608 16.1341C54.5608 20.4599 51.0378 23.9707 46.697 23.9707H38.8332V8.29755Z" fill="#23163B"/>
<path d="M54.5608 31.8072C54.5608 36.133 51.0378 39.6438 46.697 39.6438C42.3562 39.6438 38.8332 36.133 38.8332 31.8072C38.8332 27.4815 42.3562 23.9707 46.697 23.9707C51.0378 23.9707 54.5608 27.4815 54.5608 31.8072Z" fill="#23163B"/>
</g>
<defs>
<clipPath id="clip0">
<rect width="31.4616" height="47.0195" fill="white" transform="translate(23.1024 8.29752)"/>
</clipPath>
</defs>
</svg>
