<svg width="78" height="77" viewBox="0 0 78 77" fill="none" xmlns="http://www.w3.org/2000/svg">
<rect x="0.975586" y="0.246887" width="76.0609" height="76.0609" fill="#FA4781"/>
<path d="M38.8068 68.6346C38.4904 69.0135 38.0431 69.3084 37.465 69.5193C36.8869 69.7264 36.2463 69.8299 35.5431 69.8299C34.8049 69.8299 34.1564 69.6697 33.5978 69.3494C33.0431 69.0252 32.6135 68.5565 32.3088 67.9432C32.008 67.3299 31.8537 66.6092 31.8459 65.7811V65.201C31.8459 64.3494 31.9885 63.6131 32.2736 62.992C32.5627 62.367 32.9767 61.8904 33.5158 61.5623C34.0588 61.2303 34.6935 61.0643 35.4201 61.0643C36.4318 61.0643 37.2228 61.3065 37.7931 61.7908C38.3635 62.2713 38.7014 62.9725 38.8068 63.8943H37.0959C37.0178 63.4061 36.8439 63.0486 36.5744 62.8221C36.3088 62.5955 35.9416 62.4822 35.4728 62.4822C34.8752 62.4822 34.4201 62.7068 34.1076 63.1561C33.7951 63.6053 33.6369 64.2733 33.633 65.16V65.7049C33.633 66.5994 33.8029 67.2752 34.1428 67.7322C34.4826 68.1893 34.9806 68.4178 35.6369 68.4178C36.2971 68.4178 36.7678 68.2772 37.049 67.9959V66.5252H35.4494V65.2303H38.8068V68.6346ZM41.9123 69.7127H40.2131V63.3729H41.9123V69.7127ZM40.1135 61.7322C40.1135 61.4783 40.1974 61.2693 40.3654 61.1053C40.5373 60.9412 40.7697 60.8592 41.0627 60.8592C41.3517 60.8592 41.5822 60.9412 41.7541 61.1053C41.926 61.2693 42.0119 61.4783 42.0119 61.7322C42.0119 61.9901 41.924 62.201 41.7482 62.3651C41.5764 62.5291 41.3478 62.6111 41.0627 62.6111C40.7775 62.6111 40.5471 62.5291 40.3713 62.3651C40.1994 62.201 40.1135 61.9901 40.1135 61.7322ZM45.34 61.8143V63.3729H46.424V64.6151H45.34V67.7791C45.34 68.0135 45.3849 68.1815 45.4748 68.283C45.5646 68.3846 45.7365 68.4354 45.9904 68.4354C46.1779 68.4354 46.3439 68.4217 46.4885 68.3943V69.6776C46.1564 69.7791 45.8146 69.8299 45.4631 69.8299C44.2756 69.8299 43.6701 69.2303 43.6467 68.0311V64.6151H42.7209V63.3729H43.6467V61.8143H45.34Z" fill="#23163B"/>
<path d="M61.9241 31.6397L41.1099 10.8266C39.9115 9.62763 37.9675 9.62763 36.768 10.8266L32.4463 15.1493L37.9286 20.6316C39.2028 20.201 40.6637 20.49 41.679 21.5058C42.7006 22.5278 42.987 24.0013 42.5455 25.2801L47.8301 30.5642C49.1089 30.1232 50.5834 30.4086 51.6044 31.4312C53.0311 32.8579 53.0311 35.1697 51.6044 36.5975C50.1766 38.0247 47.8648 38.0247 46.4365 36.5975C45.3636 35.5235 45.098 33.9463 45.6422 32.6244L40.7135 27.6962V40.6649C41.0611 40.8372 41.3895 41.0665 41.679 41.356C43.1058 42.7827 43.1058 45.0945 41.679 46.5228C40.2523 47.949 37.9389 47.949 36.5132 46.5228C35.0865 45.094 35.0865 42.7822 36.5132 41.356C36.866 41.0037 37.2743 40.7371 37.7101 40.5586V27.469C37.2743 27.2905 36.8671 27.0265 36.5132 26.6716C35.4326 25.5914 35.1726 24.0049 35.7267 22.6778L30.3223 17.2723L16.0498 31.5432C14.8508 32.7432 14.8508 34.6872 16.0498 35.8862L36.865 56.6998C38.0634 57.8988 40.0069 57.8988 41.2069 56.6998L61.9241 35.9827C63.123 34.7837 63.123 32.8387 61.9241 31.6397Z" fill="#23163B"/>
</svg>
