<svg width="78" height="73" viewBox="0 0 78 73" fill="none" xmlns="http://www.w3.org/2000/svg">
<path d="M38.5882 0.373047C17.2682 0.373047 0 17.0454 0 37.608C0 54.0624 11.0555 68.0161 26.3847 72.9357C28.3141 73.2862 29.0216 72.1336 29.0216 71.1453C29.0216 70.2611 28.9894 67.9182 28.9733 64.8142C18.2394 67.0593 15.9755 59.8188 15.9755 59.8188C14.2198 55.5213 11.6826 54.3719 11.6826 54.3719C8.18713 52.0636 11.9527 52.111 11.9527 52.111C15.8276 52.3699 17.8631 55.9475 17.8631 55.9475C21.3039 61.6408 26.896 59.9956 29.102 59.0452C29.4492 56.6359 30.4429 54.9971 31.5459 54.0656C22.9761 53.1341 13.9689 49.9322 13.9689 35.666C13.9689 31.6021 15.4642 28.2803 17.9403 25.6752C17.5062 24.7343 16.2038 20.9482 18.278 15.8202C18.278 15.8202 21.5097 14.8224 28.8897 19.6378C31.9768 18.8105 35.2568 18.4 38.5368 18.3811C41.8168 18.4 45.0968 18.8105 48.1838 19.6378C55.5156 14.8224 58.7474 15.8202 58.7474 15.8202C60.8215 20.9482 59.5191 24.7343 59.1332 25.6752C61.5932 28.2803 63.0885 31.6021 63.0885 35.666C63.0885 49.9701 54.0685 53.1183 45.4827 54.034C46.8332 55.1518 48.0874 57.4348 48.0874 60.924C48.0874 65.9068 48.0391 69.9106 48.0391 71.12C48.0391 72.0957 48.7144 73.2609 50.6921 72.8883C66.1306 68.0003 77.1765 54.0372 77.1765 37.608C77.1765 17.0454 59.8986 0.373047 38.5882 0.373047Z" fill="white"/>
</svg>
