<svg width="78" height="77" viewBox="0 0 78 77" fill="none" xmlns="http://www.w3.org/2000/svg">
<rect x="0.975586" y="0.740662" width="76.0609" height="76.0609" fill="#FA4781"/>
<path d="M30.3342 70.2065H28.5764V66.5502H25.1486V70.2065H23.3908V61.6752H25.1486V65.1323H28.5764V61.6752H30.3342V70.2065ZM38.1213 63.0991H35.508V70.2065H33.7502V63.0991H31.1721V61.6752H38.1213V63.0991ZM41.426 61.6752L43.6174 67.8627L45.7971 61.6752H48.1056V70.2065H46.342V67.8745L46.5178 63.8491L44.215 70.2065H43.008L40.7111 63.8549L40.8869 67.8745V70.2065H39.1291V61.6752H41.426ZM51.3986 68.7944H55.131V70.2065H49.6408V61.6752H51.3986V68.7944Z" fill="#23163B"/>
<path d="M58.1409 12.1498L54.6484 51.2746L38.9495 55.6268L23.2939 51.2806L19.8051 12.1498H58.1409Z" fill="#23163B"/>
<path d="M38.973 52.3001L51.6585 48.7833L54.6429 15.3493H38.973V52.3001Z" fill="#23163B"/>
<path d="M32.1837 24.9479H38.9729V20.1487H26.9387L27.0535 21.4362L28.2332 34.6616H38.9729V29.8624H32.6223L32.1837 24.9479ZM33.2653 37.0613H28.4476L29.1199 44.5969L38.9509 47.3258L38.9729 47.3198V42.3266L38.9519 42.3321L33.607 40.8889L33.2653 37.0613Z" fill="#FA4781"/>
<path d="M38.9564 34.6616H44.8662L44.309 40.8859L38.9563 42.3306V47.3236L48.7951 44.5969L48.8672 43.786L49.9951 31.1511L50.1122 29.8624H38.9564V34.6616ZM38.9564 24.9362V24.9479H50.5489L50.645 23.8693L50.8638 21.4362L50.9785 20.1487H38.9564V24.9363V24.9362Z" fill="#FA4781"/>
</svg>
