<svg width="77" height="77" viewBox="0 0 77 77" fill="none" xmlns="http://www.w3.org/2000/svg">
<rect width="76.0609" height="76.0609" fill="#FA4781"/>
<path d="M12.5645 60.4688H14.3223V66.375C14.3223 66.918 14.2012 67.3984 13.959 67.8164C13.7207 68.2305 13.3828 68.5508 12.9453 68.7773C12.5078 69.0039 12.0137 69.1172 11.4629 69.1172C10.5605 69.1172 9.85742 68.8887 9.35352 68.4316C8.84961 67.9707 8.59766 67.3203 8.59766 66.4805H10.3672C10.3672 66.8984 10.4551 67.207 10.6309 67.4062C10.8066 67.6055 11.084 67.7051 11.4629 67.7051C11.7988 67.7051 12.0664 67.5898 12.2656 67.3594C12.4648 67.1289 12.5645 66.8008 12.5645 66.375V60.4688ZM19.3906 69C19.3125 68.8477 19.2559 68.6582 19.2207 68.4316C18.8105 68.8887 18.2773 69.1172 17.6211 69.1172C17 69.1172 16.4844 68.9375 16.0742 68.5781C15.668 68.2188 15.4648 67.7656 15.4648 67.2188C15.4648 66.5469 15.7129 66.0312 16.209 65.6719C16.709 65.3125 17.4297 65.1309 18.3711 65.127H19.1504V64.7637C19.1504 64.4707 19.0742 64.2363 18.9219 64.0605C18.7734 63.8848 18.5371 63.7969 18.2129 63.7969C17.9277 63.7969 17.7031 63.8652 17.5391 64.002C17.3789 64.1387 17.2988 64.3262 17.2988 64.5645H15.6055C15.6055 64.1973 15.7188 63.8574 15.9453 63.5449C16.1719 63.2324 16.4922 62.9883 16.9062 62.8125C17.3203 62.6328 17.7852 62.543 18.3008 62.543C19.082 62.543 19.7012 62.7402 20.1582 63.1348C20.6191 63.5254 20.8496 64.0762 20.8496 64.7871V67.5352C20.8535 68.1367 20.9375 68.5918 21.1016 68.9004V69H19.3906ZM17.9902 67.8223C18.2402 67.8223 18.4707 67.7676 18.6816 67.6582C18.8926 67.5449 19.0488 67.3945 19.1504 67.207V66.1172H18.5176C17.6699 66.1172 17.2188 66.4102 17.1641 66.9961L17.1582 67.0957C17.1582 67.3066 17.2324 67.4805 17.3809 67.6172C17.5293 67.7539 17.7324 67.8223 17.9902 67.8223ZM24.4297 66.9316L25.6074 62.6602H27.377L25.2383 69H23.6211L21.4824 62.6602H23.252L24.4297 66.9316ZM31.707 69C31.6289 68.8477 31.5723 68.6582 31.5371 68.4316C31.127 68.8887 30.5938 69.1172 29.9375 69.1172C29.3164 69.1172 28.8008 68.9375 28.3906 68.5781C27.9844 68.2188 27.7812 67.7656 27.7812 67.2188C27.7812 66.5469 28.0293 66.0312 28.5254 65.6719C29.0254 65.3125 29.7461 65.1309 30.6875 65.127H31.4668V64.7637C31.4668 64.4707 31.3906 64.2363 31.2383 64.0605C31.0898 63.8848 30.8535 63.7969 30.5293 63.7969C30.2441 63.7969 30.0195 63.8652 29.8555 64.002C29.6953 64.1387 29.6152 64.3262 29.6152 64.5645H27.9219C27.9219 64.1973 28.0352 63.8574 28.2617 63.5449C28.4883 63.2324 28.8086 62.9883 29.2227 62.8125C29.6367 62.6328 30.1016 62.543 30.6172 62.543C31.3984 62.543 32.0176 62.7402 32.4746 63.1348C32.9355 63.5254 33.166 64.0762 33.166 64.7871V67.5352C33.1699 68.1367 33.2539 68.5918 33.418 68.9004V69H31.707ZM30.3066 67.8223C30.5566 67.8223 30.7871 67.7676 30.998 67.6582C31.209 67.5449 31.3652 67.3945 31.4668 67.207V66.1172H30.834C29.9863 66.1172 29.5352 66.4102 29.4805 66.9961L29.4746 67.0957C29.4746 67.3066 29.5488 67.4805 29.6973 67.6172C29.8457 67.7539 30.0488 67.8223 30.3066 67.8223ZM37.9004 67.248C37.9004 67.041 37.7969 66.8789 37.5898 66.7617C37.3867 66.6406 37.0586 66.5332 36.6055 66.4395C35.0977 66.123 34.3438 65.4824 34.3438 64.5176C34.3438 63.9551 34.5762 63.4863 35.041 63.1113C35.5098 62.7324 36.1211 62.543 36.875 62.543C37.6797 62.543 38.3223 62.7324 38.8027 63.1113C39.2871 63.4902 39.5293 63.9824 39.5293 64.5879H37.8359C37.8359 64.3457 37.7578 64.1465 37.6016 63.9902C37.4453 63.8301 37.2012 63.75 36.8691 63.75C36.584 63.75 36.3633 63.8145 36.207 63.9434C36.0508 64.0723 35.9727 64.2363 35.9727 64.4355C35.9727 64.623 36.0605 64.7754 36.2363 64.8926C36.416 65.0059 36.7168 65.1055 37.1387 65.1914C37.5605 65.2734 37.916 65.3672 38.2051 65.4727C39.0996 65.8008 39.5469 66.3691 39.5469 67.1777C39.5469 67.7559 39.2988 68.2246 38.8027 68.584C38.3066 68.9395 37.666 69.1172 36.8809 69.1172C36.3496 69.1172 35.877 69.0234 35.4629 68.8359C35.0527 68.6445 34.7305 68.3848 34.4961 68.0566C34.2617 67.7246 34.1445 67.3672 34.1445 66.9844H35.75C35.7656 67.2852 35.877 67.5156 36.084 67.6758C36.291 67.8359 36.5684 67.916 36.916 67.916C37.2402 67.916 37.4844 67.8555 37.6484 67.7344C37.8164 67.6094 37.9004 67.4473 37.9004 67.248ZM43.2793 67.752C43.5918 67.752 43.8457 67.666 44.041 67.4941C44.2363 67.3223 44.3379 67.0938 44.3457 66.8086H45.9336C45.9297 67.2383 45.8125 67.6328 45.582 67.9922C45.3516 68.3477 45.0352 68.625 44.6328 68.8242C44.2344 69.0195 43.793 69.1172 43.3086 69.1172C42.4023 69.1172 41.6875 68.8301 41.1641 68.2559C40.6406 67.6777 40.3789 66.8809 40.3789 65.8652V65.7539C40.3789 64.7773 40.6387 63.998 41.1582 63.416C41.6777 62.834 42.3906 62.543 43.2969 62.543C44.0898 62.543 44.7246 62.7695 45.2012 63.2227C45.6816 63.6719 45.9258 64.2715 45.9336 65.0215H44.3457C44.3379 64.6934 44.2363 64.4277 44.041 64.2246C43.8457 64.0176 43.5879 63.9141 43.2676 63.9141C42.873 63.9141 42.5742 64.0586 42.3711 64.3477C42.1719 64.6328 42.0723 65.0977 42.0723 65.7422V65.918C42.0723 66.5703 42.1719 67.0391 42.3711 67.3242C42.5703 67.6094 42.873 67.752 43.2793 67.752ZM50.4629 64.248C50.2324 64.2168 50.0293 64.2012 49.8535 64.2012C49.2129 64.2012 48.793 64.418 48.5938 64.8516V69H46.9004V62.6602H48.5L48.5469 63.416C48.8867 62.834 49.3574 62.543 49.959 62.543C50.1465 62.543 50.3223 62.5684 50.4863 62.6191L50.4629 64.248ZM53.0703 69H51.3711V62.6602H53.0703V69ZM51.2715 61.0195C51.2715 60.7656 51.3555 60.5566 51.5234 60.3926C51.6953 60.2285 51.9277 60.1465 52.2207 60.1465C52.5098 60.1465 52.7402 60.2285 52.9121 60.3926C53.084 60.5566 53.1699 60.7656 53.1699 61.0195C53.1699 61.2773 53.082 61.4883 52.9062 61.6523C52.7344 61.8164 52.5059 61.8984 52.2207 61.8984C51.9355 61.8984 51.7051 61.8164 51.5293 61.6523C51.3574 61.4883 51.2715 61.2773 51.2715 61.0195ZM60.1777 65.8887C60.1777 66.8652 59.9551 67.6484 59.5098 68.2383C59.0684 68.8242 58.4707 69.1172 57.7168 69.1172C57.0762 69.1172 56.5586 68.8945 56.1641 68.4492V71.4375H54.4707V62.6602H56.041L56.0996 63.2812C56.5098 62.7891 57.0449 62.543 57.7051 62.543C58.4863 62.543 59.0938 62.832 59.5273 63.4102C59.9609 63.9883 60.1777 64.7852 60.1777 65.8008V65.8887ZM58.4844 65.7656C58.4844 65.1758 58.3789 64.7207 58.168 64.4004C57.9609 64.0801 57.6582 63.9199 57.2598 63.9199C56.7285 63.9199 56.3633 64.123 56.1641 64.5293V67.125C56.3711 67.543 56.7402 67.752 57.2715 67.752C58.0801 67.752 58.4844 67.0898 58.4844 65.7656ZM63.2598 61.1016V62.6602H64.3438V63.9023H63.2598V67.0664C63.2598 67.3008 63.3047 67.4688 63.3945 67.5703C63.4844 67.6719 63.6562 67.7227 63.9102 67.7227C64.0977 67.7227 64.2637 67.709 64.4082 67.6816V68.9648C64.0762 69.0664 63.7344 69.1172 63.3828 69.1172C62.1953 69.1172 61.5898 68.5176 61.5664 67.3184V63.9023H60.6406V62.6602H61.5664V61.1016H63.2598Z" fill="#23163B"/>
<path d="M28.848 47.8322L32.8165 45.4304C33.5823 46.7879 34.2787 47.9365 35.9494 47.9365C37.5507 47.9365 38.5606 47.3101 38.5606 44.8736V28.3032H43.434V44.9424C43.434 49.99 40.4751 52.2877 36.1582 52.2877C32.2596 52.2877 29.9967 50.2686 28.8478 47.8318L28.848 47.8322ZM46.0811 47.3099L50.0491 45.0125C51.0938 46.7184 52.4515 47.9716 54.8533 47.9716C56.8727 47.9716 58.1603 46.9619 58.1603 45.5694C58.1603 43.8985 56.8375 43.3066 54.6096 42.3322L53.3915 41.8096C49.8753 40.3131 47.5431 38.4332 47.5431 34.4647C47.5431 30.8094 50.3279 28.0244 54.6794 28.0244C57.7777 28.0244 60.0056 29.1037 61.6068 31.9234L57.8121 34.3604C56.9765 32.8636 56.0718 32.2718 54.6792 32.2718C53.2519 32.2718 52.3468 33.177 52.3468 34.3604C52.3468 35.8224 53.2519 36.4145 55.3405 37.3197L56.5587 37.8417C60.7014 39.6173 63.0337 41.4273 63.0337 45.4999C63.0337 49.8865 59.5875 52.2883 54.9576 52.2883C50.4322 52.2883 47.508 50.13 46.0809 47.3101" fill="#23163B"/>
</svg>
