<svg width="76" height="76" viewBox="0 0 76 76" fill="none" xmlns="http://www.w3.org/2000/svg">
<g clip-path="url(#clip0)">
<path d="M23.7489 62.6832H13.3953V29.2558H23.7489V62.6832ZM24.782 18.6057C24.782 15.2587 22.0665 12.542 18.7212 12.542C15.3632 12.542 12.6546 15.2587 12.6546 18.6057C12.6546 21.9539 15.3632 24.6706 18.7212 24.6706C22.0665 24.6706 24.782 21.9539 24.782 18.6057ZM62.4999 44.2928C62.4999 35.3194 60.6043 28.6641 50.1218 28.6641C45.0848 28.6641 41.7037 31.1832 40.3234 33.8028H40.3136V29.2558H30.2558V62.6832H40.3136V46.0862C40.3136 41.7396 41.42 37.5288 46.8077 37.5288C52.122 37.5288 52.2942 42.4994 52.2942 46.3624V62.6832H62.4999V44.2928ZM75.8118 66.9725V8.99222C75.8118 4.09851 71.8309 0.117676 66.9372 0.117676H8.95688C4.06317 0.117676 0.0823364 4.09851 0.0823364 8.99222V66.9725C0.0823364 71.8663 4.06317 75.8471 8.95688 75.8471H66.9372C71.8309 75.8471 75.8118 71.8663 75.8118 66.9725ZM66.9372 6.03404C68.5683 6.03404 69.8954 7.36117 69.8954 8.99222V66.9725C69.8954 68.6036 68.5683 69.9307 66.9372 69.9307H8.95688C7.32583 69.9307 5.9987 68.6036 5.9987 66.9725V8.99222C5.9987 7.36117 7.32583 6.03404 8.95688 6.03404H66.9372Z" fill="white"/>
</g>
<defs>
<clipPath id="clip0">
<rect width="75.7294" height="75.7294" fill="white" transform="translate(0.0823364 0.117676)"/>
</clipPath>
</defs>
</svg>
