<svg width="77" height="77" viewBox="0 0 77 77" fill="none" xmlns="http://www.w3.org/2000/svg">
<rect y="0.740662" width="76.0609" height="76.0609" fill="#FA4781"/>
<path d="M14.5226 61.6752L16.714 67.8627L18.8937 61.6752H21.2023V70.2065H19.4387V67.8745L19.6144 63.8491L17.3117 70.2065H16.1047L13.8078 63.8549L13.9836 67.8745V70.2065H12.2258V61.6752H14.5226ZM22.3625 66.978C22.3625 66.3491 22.4836 65.7885 22.7258 65.2963C22.968 64.8041 23.3156 64.4233 23.7687 64.1537C24.2258 63.8842 24.7551 63.7495 25.3566 63.7495C26.2121 63.7495 26.9094 64.0112 27.4484 64.5346C27.9914 65.058 28.2941 65.769 28.3566 66.6674L28.3683 67.101C28.3683 68.0737 28.0969 68.8549 27.5539 69.4448C27.0109 70.0307 26.2824 70.3237 25.3683 70.3237C24.4543 70.3237 23.7238 70.0307 23.1769 69.4448C22.634 68.8588 22.3625 68.062 22.3625 67.0541V66.978ZM24.0558 67.101C24.0558 67.7026 24.1691 68.1635 24.3957 68.4838C24.6222 68.8002 24.9465 68.9584 25.3683 68.9584C25.7785 68.9584 26.0988 68.8022 26.3293 68.4897C26.5597 68.1733 26.675 67.6694 26.675 66.978C26.675 66.3881 26.5597 65.9311 26.3293 65.6069C26.0988 65.2827 25.7746 65.1205 25.3566 65.1205C24.9426 65.1205 24.6222 65.2827 24.3957 65.6069C24.1691 65.9272 24.0558 66.4252 24.0558 67.101ZM30.9699 63.8666L31.0226 64.5991C31.4758 64.0327 32.0832 63.7495 32.8449 63.7495C33.5168 63.7495 34.0168 63.9467 34.3449 64.3412C34.673 64.7358 34.841 65.3256 34.8488 66.1108V70.2065H33.1555V66.1518C33.1555 65.7924 33.0773 65.5327 32.9211 65.3725C32.7648 65.2084 32.5051 65.1264 32.1418 65.1264C31.6652 65.1264 31.3078 65.3295 31.0695 65.7358V70.2065H29.3762V63.8666H30.9699ZM35.8918 66.9897C35.8918 66.017 36.1222 65.2338 36.5832 64.6401C37.048 64.0463 37.673 63.7495 38.4582 63.7495C39.1535 63.7495 39.6945 63.9877 40.0812 64.4643L40.1515 63.8666H41.6867V69.9955C41.6867 70.5502 41.5597 71.0327 41.3058 71.4428C41.0558 71.853 40.7023 72.1655 40.2453 72.3803C39.7883 72.5952 39.2531 72.7026 38.6398 72.7026C38.175 72.7026 37.7219 72.6088 37.2805 72.4213C36.839 72.2377 36.5051 71.9995 36.2785 71.7065L37.0285 70.6752C37.4504 71.1479 37.9621 71.3842 38.5637 71.3842C39.0129 71.3842 39.3625 71.2631 39.6125 71.0209C39.8625 70.7827 39.9875 70.4428 39.9875 70.0014V69.6616C39.5969 70.103 39.0832 70.3237 38.4465 70.3237C37.6847 70.3237 37.0676 70.0268 36.5949 69.433C36.1262 68.8354 35.8918 68.0444 35.8918 67.06V66.9897ZM37.5851 67.1127C37.5851 67.687 37.7004 68.1381 37.9308 68.4662C38.1613 68.7905 38.4777 68.9526 38.8801 68.9526C39.3957 68.9526 39.7648 68.7592 39.9875 68.3725V65.7065C39.7609 65.3198 39.3957 65.1264 38.8918 65.1264C38.4855 65.1264 38.1652 65.2924 37.9308 65.6245C37.7004 65.9565 37.5851 66.4526 37.5851 67.1127ZM42.7297 66.978C42.7297 66.3491 42.8508 65.7885 43.093 65.2963C43.3351 64.8041 43.6828 64.4233 44.1359 64.1537C44.593 63.8842 45.1222 63.7495 45.7238 63.7495C46.5793 63.7495 47.2765 64.0112 47.8156 64.5346C48.3586 65.058 48.6613 65.769 48.7238 66.6674L48.7355 67.101C48.7355 68.0737 48.464 68.8549 47.9211 69.4448C47.3781 70.0307 46.6496 70.3237 45.7355 70.3237C44.8215 70.3237 44.091 70.0307 43.5441 69.4448C43.0012 68.8588 42.7297 68.062 42.7297 67.0541V66.978ZM44.423 67.101C44.423 67.7026 44.5363 68.1635 44.7629 68.4838C44.9894 68.8002 45.3137 68.9584 45.7355 68.9584C46.1457 68.9584 46.466 68.8022 46.6965 68.4897C46.9269 68.1733 47.0422 67.6694 47.0422 66.978C47.0422 66.3881 46.9269 65.9311 46.6965 65.6069C46.466 65.2827 46.1418 65.1205 45.7238 65.1205C45.3097 65.1205 44.9894 65.2827 44.7629 65.6069C44.5363 65.9272 44.423 66.4252 44.423 67.101ZM49.8898 70.2065V61.6752H52.5148C53.2648 61.6752 53.9347 61.8452 54.5246 62.185C55.1183 62.5209 55.5812 63.0014 55.9133 63.6264C56.2453 64.2475 56.4113 64.9545 56.4113 65.7475V66.1401C56.4113 66.933 56.2472 67.6381 55.9191 68.2553C55.5949 68.8725 55.1359 69.351 54.5422 69.6909C53.9484 70.0307 53.2785 70.2026 52.5324 70.2065H49.8898ZM51.6476 63.0991V68.7944H52.4972C53.1847 68.7944 53.7101 68.5698 54.0734 68.1205C54.4367 67.6713 54.6222 67.0287 54.6301 66.1928V65.7416C54.6301 64.8745 54.4504 64.2182 54.091 63.7729C53.7316 63.3237 53.2062 63.0991 52.5148 63.0991H51.6476ZM57.6945 70.2065V61.6752H60.6828C61.718 61.6752 62.5031 61.8745 63.0383 62.2729C63.5734 62.6674 63.841 63.2475 63.841 64.0131C63.841 64.4311 63.7336 64.8002 63.5187 65.1205C63.3039 65.437 63.0051 65.6694 62.6222 65.8178C63.0597 65.9272 63.4035 66.1479 63.6535 66.4799C63.9074 66.812 64.0344 67.2182 64.0344 67.6987C64.0344 68.519 63.7726 69.1401 63.2492 69.562C62.7258 69.9838 61.9797 70.1987 61.0109 70.2065H57.6945ZM59.4523 66.4916V68.7944H60.9582C61.3722 68.7944 61.6945 68.6967 61.925 68.5014C62.1594 68.3022 62.2765 68.0287 62.2765 67.6811C62.2765 66.8998 61.8722 66.5034 61.0637 66.4916H59.4523ZM59.4523 65.2495H60.7531C61.6398 65.2338 62.0832 64.8803 62.0832 64.1889C62.0832 63.8022 61.9699 63.5248 61.7433 63.3569C61.5207 63.185 61.1672 63.0991 60.6828 63.0991H59.4523V65.2495Z" fill="#23163B"/>
<path d="M38.3558 8.13776L37.0211 10.6445C36.7211 11.1071 36.396 11.5165 36.0131 11.8979C34.8906 13.0064 33.8442 14.1895 32.8813 15.4392C30.6199 18.4085 29.0946 21.706 28.0053 25.2724C27.352 27.4509 26.9973 29.6857 26.9707 31.9456C26.8613 38.7016 29.1774 44.5027 33.8471 49.324C34.6066 50.0885 35.4272 50.7899 36.3007 51.4213C36.7633 51.4213 36.9821 51.0665 37.1727 50.7399C37.5199 50.1342 37.751 49.469 37.8541 48.7785C38.0182 47.9612 38.126 47.1439 38.0729 46.2999V45.9186C38.1104 45.8373 38.5183 8.32998 38.3558 8.13776Z" fill="#23163B"/>
<path d="M38.3558 8.05486C38.4105 7.94547 38.4652 8.0283 38.5199 8.08143C38.4933 8.62841 38.684 9.11601 38.9825 9.58173C39.3107 10.0443 39.7451 10.3991 40.1811 10.7804C42.6035 12.8777 44.5101 15.411 46.037 18.2444C48.0686 22.0576 49.1157 26.1444 49.4126 30.4468C49.5486 31.9986 48.9219 37.4747 48.4328 39.0547C47.0981 43.2493 44.7008 46.764 41.5955 49.8146C40.8328 50.5491 40.017 51.2305 39.1731 51.8853C38.9278 51.8853 38.9012 51.6666 38.8449 51.504C38.7374 51.1562 38.6554 50.8011 38.5996 50.4413L38.0526 46.3561L38.3558 8.05486Z" fill="#23163B"/>
<path d="M37.0211 53.081C36.9664 52.4559 36.6664 51.937 36.3397 51.4197C36.6679 51.2838 36.9117 51.0134 37.1024 50.7118C37.2668 50.4262 37.4029 50.1252 37.5087 49.8132C37.89 48.6692 37.9713 47.469 38.0807 46.3V45.592C38.2167 45.7014 38.2448 46.6266 38.2448 46.7641C38.3243 47.9997 38.4883 49.2283 38.7355 50.4414C38.8168 50.9322 38.8715 51.4213 39.1731 51.8573C39.1731 51.912 39.1731 51.9667 39.1465 52.048C38.6558 53.492 38.5214 54.9626 38.4386 56.4614V57.0083C38.4386 57.6616 38.4651 57.5241 37.9228 57.7429C37.7041 57.8241 37.4603 57.8523 37.2415 58.0148C37.0774 58.0148 37.0508 57.8788 37.0508 57.7694L37.1321 56.8708V54.3641C37.1586 53.9265 37.0774 53.492 37.0227 53.0826L37.0211 53.081Z" fill="#23163B"/>
</svg>
