<svg width="78" height="77" viewBox="0 0 78 77" fill="none" xmlns="http://www.w3.org/2000/svg">
<rect width="76.0609" height="76.0609" fill="#FA4781"/>
<path d="M33.2024 69.4658H31.4446L28.0228 63.8525V69.4658H26.2649V60.9346H28.0228L31.4505 66.5596V60.9346H33.2024V69.4658ZM34.3626 66.2373C34.3626 65.6084 34.4837 65.0479 34.7259 64.5557C34.9681 64.0635 35.3157 63.6826 35.7689 63.4131C36.2259 63.1436 36.7552 63.0088 37.3567 63.0088C38.2122 63.0088 38.9095 63.2705 39.4485 63.7939C39.9915 64.3174 40.2942 65.0283 40.3567 65.9268L40.3685 66.3604C40.3685 67.333 40.097 68.1143 39.554 68.7041C39.011 69.29 38.2825 69.583 37.3685 69.583C36.4544 69.583 35.7239 69.29 35.1771 68.7041C34.6341 68.1182 34.3626 67.3213 34.3626 66.3135V66.2373ZM36.056 66.3604C36.056 66.9619 36.1692 67.4229 36.3958 67.7432C36.6224 68.0596 36.9466 68.2178 37.3685 68.2178C37.7786 68.2178 38.0989 68.0615 38.3294 67.749C38.5599 67.4326 38.6751 66.9287 38.6751 66.2373C38.6751 65.6475 38.5599 65.1904 38.3294 64.8662C38.0989 64.542 37.7747 64.3799 37.3567 64.3799C36.9427 64.3799 36.6224 64.542 36.3958 64.8662C36.1692 65.1865 36.056 65.6846 36.056 66.3604ZM41.1478 66.249C41.1478 65.2607 41.3685 64.4736 41.8099 63.8877C42.2552 63.3018 42.8626 63.0088 43.6321 63.0088C44.2493 63.0088 44.7591 63.2393 45.1614 63.7002V60.4658H46.8607V69.4658H45.3314L45.2493 68.792C44.8274 69.3193 44.2845 69.583 43.6204 69.583C42.8743 69.583 42.2747 69.29 41.8216 68.7041C41.3724 68.1143 41.1478 67.2959 41.1478 66.249ZM42.8411 66.3721C42.8411 66.9658 42.9446 67.4209 43.1517 67.7373C43.3587 68.0537 43.6595 68.2119 44.054 68.2119C44.5774 68.2119 44.9466 67.9912 45.1614 67.5498V65.0479C44.9505 64.6064 44.5853 64.3857 44.0657 64.3857C43.2493 64.3857 42.8411 65.0479 42.8411 66.3721ZM51.0911 69.583C50.1614 69.583 49.4036 69.2979 48.8177 68.7275C48.2357 68.1572 47.9446 67.3975 47.9446 66.4482V66.2842C47.9446 65.6475 48.0677 65.0791 48.3138 64.5791C48.5599 64.0752 48.9075 63.6885 49.3567 63.4189C49.8099 63.1455 50.3255 63.0088 50.9036 63.0088C51.7708 63.0088 52.4524 63.2822 52.9485 63.8291C53.4485 64.376 53.6985 65.1514 53.6985 66.1553V66.8467H49.6614C49.7161 67.2607 49.8802 67.5928 50.1536 67.8428C50.431 68.0928 50.7806 68.2178 51.2024 68.2178C51.8548 68.2178 52.3646 67.9814 52.7317 67.5088L53.5638 68.4404C53.3099 68.7998 52.9661 69.0811 52.5325 69.2842C52.0989 69.4834 51.6185 69.583 51.0911 69.583ZM50.8978 64.3799C50.5618 64.3799 50.2884 64.4932 50.0774 64.7197C49.8704 64.9463 49.7376 65.2705 49.679 65.6924H52.0345V65.5576C52.0267 65.1826 51.9251 64.8936 51.7298 64.6904C51.5345 64.4834 51.2571 64.3799 50.8978 64.3799Z" fill="#23163B"/>
<path d="M37.4956 11.1202C38.5622 10.5084 39.9514 10.5057 41.0171 11.1202C46.3784 14.1559 51.7414 17.1869 57.1018 20.2244C58.1101 20.7935 58.7845 21.9179 58.7742 23.082V41.346C58.7817 42.5583 58.0407 43.7096 56.977 44.2658C51.6333 47.2847 46.2923 50.3074 40.9496 53.3263C39.8609 53.9501 38.4438 53.902 37.3891 53.2272C35.7871 52.2965 34.1823 51.3705 32.5801 50.4408C32.2527 50.2452 31.8836 50.0895 31.6525 49.7714C31.8568 49.4954 32.2222 49.461 32.5191 49.3405C33.1879 49.1274 33.8021 48.7854 34.4164 48.4535C34.5717 48.3469 34.7614 48.3878 34.9103 48.4831C36.2803 49.2702 37.6381 50.0802 39.0126 50.8597C39.3058 51.0294 39.6028 50.8042 39.8534 50.6642C45.0972 47.6943 50.3474 44.7357 55.5903 41.7649C55.7846 41.6713 55.892 41.4646 55.8762 41.2514C55.8799 35.2265 55.8771 29.2006 55.8781 23.1757C55.9003 22.9337 55.7606 22.7113 55.5422 22.6122C50.2171 19.6071 44.8947 16.5973 39.5704 13.5914C39.4782 13.5279 39.3689 13.4938 39.257 13.4936C39.145 13.4934 39.0356 13.5272 38.9432 13.5905C33.619 16.5973 28.2975 19.6099 22.9732 22.6149C22.7557 22.714 22.6097 22.9328 22.6356 23.1757C22.6365 29.2006 22.6356 35.2265 22.6356 41.2523C22.6264 41.3564 22.6492 41.4607 22.7009 41.5514C22.7527 41.6421 22.8309 41.7147 22.9251 41.7594C24.3459 42.5668 25.7686 43.3684 27.1903 44.173C27.9912 44.605 28.9746 44.8617 29.8571 44.5307C30.6358 44.2509 31.1817 43.4546 31.1668 42.626C31.1742 36.6363 31.1631 30.6456 31.1723 24.6568C31.1529 24.3909 31.4046 24.1712 31.6626 24.1963C32.3452 24.1917 33.0288 24.1871 33.7115 24.1981C33.9965 24.1917 34.1926 24.478 34.1573 24.7459C34.1546 30.7735 34.1647 36.8013 34.1527 42.829C34.1546 44.4354 33.496 46.1834 32.0131 46.9694C30.1863 47.9177 27.9284 47.7166 26.1237 46.8073C24.5613 46.0259 23.0704 45.1037 21.5357 44.2665C20.4693 43.7134 19.7319 42.5575 19.7395 41.3461V23.082C19.7283 21.8938 20.4295 20.749 21.4691 20.1882C26.8119 17.1667 32.1537 14.143 37.4956 11.1202Z" fill="#23163B"/>
<path d="M42.1566 23.7718C44.4868 23.6215 46.9814 23.6827 49.0783 24.833C50.7018 25.7145 51.6019 27.5646 51.6305 29.372C51.5852 29.6158 51.3308 29.7503 51.0986 29.7335C50.4225 29.7326 49.7463 29.7427 49.0702 29.7289C48.7834 29.74 48.6167 29.475 48.5807 29.2209C48.3865 28.3562 47.9158 27.4997 47.1035 27.0826C45.8566 26.457 44.4108 26.4884 43.0512 26.5015C42.0586 26.5543 40.9912 26.6404 40.1503 27.2253C39.5047 27.6684 39.3086 28.5628 39.539 29.2831C39.7563 29.8003 40.3521 29.9672 40.8395 30.121C43.6477 30.857 46.6236 30.7838 49.3781 31.7523C50.5186 32.1472 51.6342 32.9148 52.0246 34.1113C52.5352 35.715 52.3113 37.6318 51.1727 38.9192C50.2494 39.9787 48.9046 40.5553 47.5633 40.8685C45.7789 41.2672 43.9272 41.2773 42.1151 41.1003C40.4112 40.9056 38.638 40.457 37.3226 39.2937C36.1978 38.315 35.6484 36.7901 35.703 35.3183C35.716 35.0697 35.963 34.8964 36.2006 34.9168C36.8814 34.9113 37.5622 34.9095 38.2431 34.9177C38.515 34.8983 38.7166 35.1338 38.7306 35.3906C38.8562 36.2145 39.1652 37.0793 39.8822 37.5678C41.2659 38.4624 43.0022 38.4011 44.5866 38.4261C45.8992 38.3678 47.3727 38.3501 48.4439 37.4808C49.0091 36.9849 49.1765 36.1553 49.0238 35.4416C48.8583 34.839 48.2293 34.5582 47.6891 34.3746C44.9169 33.4958 41.9078 33.8147 39.1624 32.821C38.0479 32.4263 36.9701 31.68 36.5419 30.5326C35.9444 28.9087 36.2182 26.9 37.4761 25.6561C38.7027 24.4187 40.4732 23.9422 42.1566 23.7716V23.7718Z" fill="#23163B"/>
</svg>
