<svg width="77" height="77" viewBox="0 0 77 77" fill="none" xmlns="http://www.w3.org/2000/svg">
<rect y="0.493774" width="76.0609" height="76.0609" fill="#FA4781"/>
<path d="M26.4992 66.8365H25.0988V69.9595H23.341V61.4283H26.5109C27.5187 61.4283 28.2961 61.6529 28.843 62.1021C29.3898 62.5513 29.6633 63.1861 29.6633 64.0064C29.6633 64.5884 29.5363 65.0748 29.2824 65.4654C29.0324 65.8521 28.6515 66.1607 28.1398 66.3912L29.9855 69.8775V69.9595H28.0988L26.4992 66.8365ZM25.0988 65.4127H26.5168C26.9582 65.4127 27.3 65.3013 27.5422 65.0787C27.7844 64.8521 27.9055 64.5416 27.9055 64.147C27.9055 63.7447 27.7902 63.4283 27.5597 63.1978C27.3332 62.9673 26.9836 62.8521 26.5109 62.8521H25.0988V65.4127ZM33.8117 70.0767C32.882 70.0767 32.1242 69.7916 31.5383 69.2213C30.9562 68.6509 30.6652 67.8912 30.6652 66.942V66.7779C30.6652 66.1412 30.7883 65.5728 31.0344 65.0728C31.2805 64.5689 31.6281 64.1822 32.0773 63.9127C32.5305 63.6392 33.0461 63.5025 33.6242 63.5025C34.4914 63.5025 35.173 63.7759 35.6691 64.3228C36.1691 64.8697 36.4191 65.6451 36.4191 66.649V67.3404H32.382C32.4367 67.7545 32.6008 68.0865 32.8742 68.3365C33.1515 68.5865 33.5012 68.7115 33.923 68.7115C34.5754 68.7115 35.0851 68.4752 35.4523 68.0025L36.2844 68.9341C36.0305 69.2935 35.6867 69.5748 35.2531 69.7779C34.8195 69.9771 34.339 70.0767 33.8117 70.0767ZM33.6183 64.8736C33.2824 64.8736 33.009 64.9869 32.798 65.2134C32.591 65.44 32.4582 65.7642 32.3996 66.1861H34.7551V66.0513C34.7472 65.6763 34.6457 65.3873 34.4504 65.1841C34.2551 64.9771 33.9777 64.8736 33.6183 64.8736ZM41.0597 69.9595C40.9816 69.8072 40.925 69.6177 40.8898 69.3912C40.4797 69.8482 39.9465 70.0767 39.2902 70.0767C38.6691 70.0767 38.1535 69.897 37.7433 69.5377C37.3371 69.1783 37.134 68.7252 37.134 68.1783C37.134 67.5064 37.382 66.9908 37.8781 66.6314C38.3781 66.272 39.0988 66.0904 40.0402 66.0865H40.8195V65.7232C40.8195 65.4302 40.7433 65.1959 40.591 65.0201C40.4426 64.8443 40.2062 64.7564 39.882 64.7564C39.5969 64.7564 39.3722 64.8248 39.2082 64.9615C39.048 65.0982 38.968 65.2857 38.968 65.524H37.2746C37.2746 65.1568 37.3879 64.817 37.6144 64.5045C37.841 64.192 38.1613 63.9478 38.5754 63.772C38.9894 63.5923 39.4543 63.5025 39.9699 63.5025C40.7512 63.5025 41.3703 63.6998 41.8273 64.0943C42.2883 64.4849 42.5187 65.0357 42.5187 65.7466V68.4947C42.5226 69.0963 42.6066 69.5513 42.7707 69.8599V69.9595H41.0597ZM39.6594 68.7818C39.9094 68.7818 40.1398 68.7271 40.3508 68.6177C40.5617 68.5045 40.718 68.3541 40.8195 68.1666V67.0767H40.1867C39.339 67.0767 38.8879 67.3697 38.8332 67.9556L38.8273 68.0552C38.8273 68.2662 38.9015 68.44 39.05 68.5767C39.1984 68.7134 39.4015 68.7818 39.6594 68.7818ZM46.4562 68.7115C46.7687 68.7115 47.0226 68.6255 47.218 68.4537C47.4133 68.2818 47.5148 68.0533 47.5226 67.7681H49.1105C49.1066 68.1978 48.9894 68.5923 48.759 68.9517C48.5285 69.3072 48.2121 69.5845 47.8097 69.7838C47.4113 69.9791 46.9699 70.0767 46.4855 70.0767C45.5793 70.0767 44.8644 69.7896 44.341 69.2154C43.8176 68.6373 43.5558 67.8404 43.5558 66.8248V66.7134C43.5558 65.7369 43.8156 64.9576 44.3351 64.3755C44.8547 63.7935 45.5676 63.5025 46.4738 63.5025C47.2668 63.5025 47.9015 63.7291 48.3781 64.1822C48.8586 64.6314 49.1027 65.231 49.1105 65.981H47.5226C47.5148 65.6529 47.4133 65.3873 47.218 65.1841C47.0226 64.9771 46.7648 64.8736 46.4445 64.8736C46.05 64.8736 45.7512 65.0181 45.548 65.3072C45.3488 65.5923 45.2492 66.0572 45.2492 66.7017V66.8775C45.2492 67.5298 45.3488 67.9986 45.548 68.2838C45.7472 68.5689 46.05 68.7115 46.4562 68.7115ZM52.1047 62.0611V63.6197H53.1887V64.8619H52.1047V68.0259C52.1047 68.2603 52.1496 68.4283 52.2394 68.5298C52.3293 68.6314 52.5012 68.6822 52.7551 68.6822C52.9426 68.6822 53.1086 68.6685 53.2531 68.6412V69.9244C52.9211 70.0259 52.5793 70.0767 52.2277 70.0767C51.0402 70.0767 50.4347 69.4771 50.4113 68.2779V64.8619H49.4855V63.6197H50.4113V62.0611H52.1047Z" fill="#23163B"/>
<path d="M11.5649 33.8054C11.5649 37.7624 15.4417 41.4563 21.5536 43.5385C20.3331 49.6624 21.335 54.5985 24.681 56.5217C28.1202 58.4987 33.2439 57.1303 38.1071 52.8931C42.8476 56.9591 47.6385 58.5593 50.9816 56.6305C54.4177 54.6479 55.4626 49.3772 54.2084 43.062C60.5743 40.9643 64.1352 37.8145 64.1352 33.8054C64.1352 29.9402 60.2514 26.5964 54.2218 24.5276C55.5721 17.9514 54.428 13.1352 50.9434 11.1325C47.5839 9.20161 42.7373 10.8845 37.9272 15.0568C32.9228 10.6283 28.1241 9.27637 24.6432 11.2847C21.2868 13.2211 20.3291 18.2469 21.5536 24.4841C15.648 26.5363 11.5649 29.9558 11.5649 33.8054Z" fill="#FA4781"/>
<path d="M52.9449 26.582C52.448 26.4121 51.9469 26.2547 51.442 26.11C51.5257 25.7709 51.6031 25.4303 51.6742 25.0883C52.8119 19.5841 52.068 15.1499 49.5279 13.6902C47.0924 12.2903 43.1092 13.7499 39.0863 17.2391C38.6899 17.5837 38.3023 17.9382 37.9239 18.3024C37.6704 18.0602 37.4125 17.8228 37.1503 17.5902C32.9342 13.8591 28.7082 12.287 26.1707 13.751C23.7375 15.1548 23.0169 19.3236 24.0411 24.5399C24.143 25.0565 24.258 25.5704 24.3861 26.0812C23.7882 26.2504 23.2107 26.4308 22.6582 26.6228C17.7154 28.3403 14.5587 31.0323 14.5587 33.8243C14.5587 36.7083 17.9472 39.6008 23.0958 41.3546C23.5133 41.4961 23.9342 41.6273 24.3582 41.7479C24.2205 42.2982 24.0982 42.8521 23.9915 43.4092C23.015 48.5349 23.7776 52.6048 26.2044 54.0001C28.7109 55.4406 32.9177 53.9599 37.0141 50.391C37.3379 50.1089 37.6629 49.8097 37.9883 49.496C38.3982 49.8902 38.8191 50.2729 39.2504 50.6437C43.2183 54.0468 47.1371 55.421 49.5617 54.0221C52.066 52.5772 52.8796 48.205 51.823 42.8855C51.7424 42.4792 51.6484 42.0642 51.543 41.6417C51.8385 41.5548 52.1284 41.465 52.4112 41.3715C57.7635 39.6041 61.2457 36.7468 61.2457 33.8243C61.2457 31.0222 57.9873 28.3121 52.9449 26.582Z" fill="#23163B"/>
<path d="M51.7839 39.4847C51.5287 39.5689 51.2667 39.6503 50.9997 39.7292C50.4088 37.8648 49.6113 35.8823 48.6356 33.8343C49.5668 31.8346 50.3334 29.8776 50.9078 28.0252C51.3853 28.1632 51.8489 28.3084 52.2957 28.4618C56.6161 29.9439 59.2513 32.1357 59.2513 33.8244C59.2513 35.6232 56.4051 37.9585 51.7841 39.4847H51.7839ZM49.8664 43.2717C50.3336 45.6239 50.4003 47.7506 50.0908 49.4131C49.8127 50.9069 49.2536 51.9028 48.5622 52.3017C47.0909 53.1506 43.9443 52.0472 40.5512 49.1369C40.1621 48.8033 39.7702 48.447 39.3772 48.0702C40.6927 46.636 42.0074 44.9688 43.2906 43.1174C45.5477 42.9179 47.68 42.5915 49.6137 42.146C49.7088 42.5291 49.7935 42.9045 49.8664 43.2717ZM30.4752 52.1551C29.0377 52.6611 27.8928 52.6755 27.2009 52.2778C25.7281 51.4314 25.1161 48.1633 25.951 43.7799C26.0503 43.2619 26.164 42.7467 26.2919 42.235C28.2042 42.6565 30.321 42.9599 32.5835 43.1428C33.8751 44.9544 35.2278 46.6196 36.5911 48.0778C36.3014 48.3571 36.0048 48.6293 35.7016 48.8941C33.8902 50.4724 32.075 51.5919 30.4754 52.1551H30.4752ZM23.7408 39.4736C21.4643 38.698 19.5842 37.6902 18.2955 36.5905C17.1377 35.602 16.5529 34.6207 16.5529 33.8244C16.5529 32.1301 19.0875 29.9688 23.3148 28.4999C23.8453 28.3163 24.3812 28.1483 24.9216 27.996C25.506 29.89 26.2723 31.8702 27.1971 33.8728C26.2603 35.9051 25.483 37.9169 24.8933 39.8332C24.5063 39.7227 24.122 39.6028 23.7408 39.4736ZM25.9983 24.1582C25.1208 19.6887 25.7035 16.3174 27.1699 15.4714C28.7319 14.5702 32.1856 15.8553 35.8258 19.0767C36.0584 19.2826 36.2921 19.4983 36.5262 19.7213C35.17 21.1729 33.8296 22.8256 32.5492 24.6267C30.3535 24.8295 28.2515 25.1553 26.3192 25.5917C26.2002 25.1165 26.0932 24.6385 25.9983 24.158V24.1582ZM46.1369 29.1144C45.6805 28.3287 45.2072 27.5528 44.7173 26.7873C46.207 26.9747 47.6341 27.2239 48.9742 27.5289C48.572 28.8142 48.0705 30.1581 47.48 31.5358C47.0485 30.7198 46.6007 29.9126 46.1369 29.1144ZM37.9244 21.1418C38.8443 22.1351 39.7656 23.2442 40.6719 24.4475C38.8336 24.3609 36.9922 24.3605 35.1539 24.4463C36.0609 23.2541 36.9901 22.1466 37.9244 21.1418ZM29.6592 29.128C29.2012 29.9198 28.7618 30.7221 28.3414 31.5344C27.7606 30.1614 27.2637 28.8115 26.8579 27.5079C28.19 27.2107 29.6105 26.968 31.0905 26.7836C30.595 27.5538 30.1178 28.3355 29.6592 29.128ZM31.133 41.007C29.6041 40.8369 28.1621 40.6064 26.8304 40.3175C27.2426 38.9909 27.7505 37.6119 28.3437 36.2095C28.7659 37.0223 29.2072 37.8252 29.6673 38.6173C30.1367 39.4254 30.6255 40.2222 31.133 41.007ZM37.9796 46.6474C37.0343 45.6307 36.0915 44.5063 35.1706 43.2968C36.0644 43.3318 36.9758 43.3495 37.9021 43.3495C38.8538 43.3495 39.7945 43.3283 40.7204 43.2871C39.8113 44.5186 38.8933 45.6447 37.9796 46.6474ZM47.499 36.1381C48.123 37.5557 48.649 38.9272 49.0668 40.2314C47.713 40.5393 46.2516 40.7873 44.7117 40.9714C45.2052 40.1916 45.683 39.4022 46.145 38.6035C46.6146 37.7918 47.0661 36.9698 47.499 36.1381ZM44.4173 37.6105C43.71 38.835 42.963 40.0362 42.1775 41.2123C40.7923 41.311 39.3608 41.3618 37.9021 41.3618C36.4494 41.3618 35.0361 41.3167 33.6751 41.2288C32.8692 40.0554 32.108 38.8521 31.3934 37.6214C30.6821 36.3972 30.0177 35.1466 29.4016 33.8721C30.0161 32.5973 30.6785 31.346 31.3874 30.1208V30.1212C32.0961 28.8958 32.8512 27.6976 33.6511 26.5293C35.0396 26.4247 36.4632 26.3699 37.9023 26.3699C39.3478 26.3699 40.7733 26.4251 42.1614 26.5305C42.9532 27.6971 43.7035 28.8911 44.4108 30.1103C45.1222 31.3328 45.7934 32.578 46.4235 33.8439C45.7999 35.1228 45.1308 36.3791 44.4175 37.6105H44.4173ZM48.5317 15.4123C50.095 16.311 50.703 19.9348 49.7208 24.6872C49.6564 24.9968 49.5864 25.3052 49.5108 25.6123C47.574 25.1668 45.4706 24.8353 43.2684 24.6293C41.9855 22.8087 40.6564 21.1532 39.322 19.7203C39.6717 19.3843 40.0296 19.057 40.3956 18.7388C43.8424 15.749 47.0638 14.5686 48.5317 15.4123Z" fill="#FA4781"/>
<path d="M37.9021 29.6691C40.2047 29.6691 42.0711 31.5296 42.0711 33.8243C42.0711 36.1192 40.2047 37.9797 37.9021 37.9797C35.5998 37.9797 33.7332 36.1192 33.7332 33.8243C33.7332 31.5296 35.5998 29.6691 37.9021 29.6691Z" fill="#23163B"/>
</svg>
