<svg width="78" height="77" viewBox="0 0 78 77" fill="none" xmlns="http://www.w3.org/2000/svg">
<rect x="0.975586" y="0.493774" width="76.0609" height="76.0609" fill="#FA4781"/>
<path d="M26.0568 66.8365H24.6564V69.9595H22.8986V61.4283H26.0685C27.0764 61.4283 27.8537 61.6529 28.4006 62.1021C28.9474 62.5513 29.2209 63.1861 29.2209 64.0064C29.2209 64.5884 29.0939 65.0748 28.84 65.4654C28.59 65.8521 28.2092 66.1607 27.6974 66.3912L29.5431 69.8775V69.9595H27.6564L26.0568 66.8365ZM24.6564 65.4127H26.0744C26.5158 65.4127 26.8576 65.3013 27.0998 65.0787C27.342 64.8521 27.4631 64.5416 27.4631 64.147C27.4631 63.7447 27.3478 63.4283 27.1174 63.1978C26.8908 62.9673 26.5412 62.8521 26.0685 62.8521H24.6564V65.4127ZM33.3693 70.0767C32.4396 70.0767 31.6818 69.7916 31.0959 69.2213C30.5139 68.6509 30.2228 67.8912 30.2228 66.942V66.7779C30.2228 66.1412 30.3459 65.5728 30.592 65.0728C30.8381 64.5689 31.1857 64.1822 31.6349 63.9127C32.0881 63.6392 32.6037 63.5025 33.1818 63.5025C34.049 63.5025 34.7306 63.7759 35.2267 64.3228C35.7267 64.8697 35.9767 65.6451 35.9767 66.649V67.3404H31.9396C31.9943 67.7545 32.1584 68.0865 32.4318 68.3365C32.7092 68.5865 33.0588 68.7115 33.4806 68.7115C34.133 68.7115 34.6428 68.4752 35.0099 68.0025L35.842 68.9341C35.5881 69.2935 35.2443 69.5748 34.8107 69.7779C34.3771 69.9771 33.8967 70.0767 33.3693 70.0767ZM33.176 64.8736C32.84 64.8736 32.5666 64.9869 32.3556 65.2134C32.1486 65.44 32.0158 65.7642 31.9572 66.1861H34.3127V66.0513C34.3049 65.6763 34.2033 65.3873 34.008 65.1841C33.8127 64.9771 33.5353 64.8736 33.176 64.8736ZM36.6799 66.7427C36.6799 65.7545 36.9006 64.9673 37.342 64.3814C37.7873 63.7955 38.3947 63.5025 39.1642 63.5025C39.7814 63.5025 40.2912 63.733 40.6935 64.1939V60.9595H42.3928V69.9595H40.8635L40.7814 69.2857C40.3596 69.813 39.8166 70.0767 39.1525 70.0767C38.4064 70.0767 37.8068 69.7838 37.3537 69.1978C36.9045 68.608 36.6799 67.7896 36.6799 66.7427ZM38.3732 66.8658C38.3732 67.4595 38.4767 67.9146 38.6838 68.231C38.8908 68.5474 39.1916 68.7056 39.5861 68.7056C40.1096 68.7056 40.4787 68.4849 40.6935 68.0435V65.5416C40.4826 65.1002 40.1174 64.8795 39.5978 64.8795C38.7814 64.8795 38.3732 65.5416 38.3732 66.8658ZM47.5021 69.315C47.0842 69.8228 46.506 70.0767 45.7678 70.0767C45.0881 70.0767 44.5685 69.8814 44.2092 69.4908C43.8537 69.1002 43.6721 68.5279 43.6642 67.774V63.6197H45.3576V67.7154C45.3576 68.3755 45.6584 68.7056 46.2599 68.7056C46.8342 68.7056 47.2287 68.5064 47.4435 68.108V63.6197H49.1428V69.9595H47.549L47.5021 69.315ZM52.8342 65.5123L53.9006 63.6197H55.7111L53.9064 66.7252L55.7873 69.9595H53.9709L52.84 67.9673L51.715 69.9595H49.8928L51.7736 66.7252L49.9748 63.6197H51.7912L52.8342 65.5123Z" fill="#23163B"/>
<path d="M48.0759 41.1983C49.811 41.0196 51.1274 39.5311 51.0675 37.7447C51.0078 35.9585 49.5118 34.5294 47.7168 34.5294H47.5972C45.7422 34.589 44.3062 36.1371 44.3661 37.9829C44.426 38.8761 44.7849 39.6501 45.3234 40.186C43.2891 44.1755 40.1777 47.093 35.5107 49.5343C32.3394 51.2015 29.0486 51.797 25.7578 51.3803C23.0652 51.0229 20.971 49.8322 19.6544 47.8671C17.7399 44.9495 17.5604 41.7936 19.176 38.6379C20.3129 36.3752 22.1077 34.708 23.2446 33.8744C23.0053 33.1004 22.6462 31.7904 22.4668 30.8378C13.7908 37.0899 14.6884 45.545 17.3211 49.5343C19.2955 52.5116 23.3045 54.3574 27.7322 54.3574C28.9288 54.3574 30.1255 54.2382 31.3222 53.9407C38.9811 52.452 44.7851 47.9266 48.0759 41.1983ZM58.6068 33.815C54.0593 28.5156 47.3579 25.598 39.6991 25.598H38.7418C38.2033 24.5263 37.0663 23.8116 35.8099 23.8116H35.6901C33.8354 23.8712 32.3995 25.4193 32.4592 27.2652C32.519 29.0515 34.0148 30.4805 35.8099 30.4805H35.9294C37.2458 30.421 38.3827 29.5873 38.8613 28.456H39.9384C44.4859 28.456 48.7938 29.7659 52.6832 32.3263C55.6748 34.2913 57.8289 36.8517 59.0255 39.9478C60.0427 42.4487 59.9828 44.8899 58.9058 46.974C57.2305 50.1298 54.4184 51.8566 50.7086 51.8566C48.3152 51.8566 46.0415 51.1419 44.8448 50.606C44.1867 51.2015 42.9899 52.1541 42.1522 52.7498C44.7252 53.9405 47.3579 54.5956 49.8709 54.5956C55.615 54.5956 59.8633 51.4397 61.4788 48.284C63.2139 44.8303 63.0942 38.8761 58.6068 33.815ZM28.2109 42.2103C28.2708 43.9967 29.7666 45.4256 31.5616 45.4256H31.6813C33.5362 45.3662 34.9721 43.818 34.9123 41.9722C34.8526 40.1858 33.3566 38.7569 31.5616 38.7569H31.442C31.3222 38.7569 31.1426 38.7569 31.0232 38.8163C28.57 34.7674 27.5528 30.3614 27.9119 25.5978C28.151 22.0252 29.3478 18.9289 31.442 16.3685C33.1771 14.1654 36.5278 13.0936 38.8016 13.0342C45.144 12.9151 47.8364 20.7747 48.016 23.9306C48.7938 24.1092 50.1102 24.5261 51.0078 24.8238C50.2896 15.1779 44.3062 10.1763 38.5623 10.1763C33.1771 10.1763 28.2109 14.0466 26.2362 19.7627C23.484 27.3842 25.279 34.708 28.6296 40.4837C28.3306 40.9004 28.151 41.5555 28.2109 42.2105V42.2103Z" fill="#23163B"/>
</svg>
