<svg width="77" height="77" viewBox="0 0 77 77" fill="none" xmlns="http://www.w3.org/2000/svg">
<rect width="76.0609" height="76.0609" fill="#FA4781"/>
<path d="M16.6906 62.3584H14.0773V69.4658H12.3195V62.3584H9.74139V60.9346H16.6906V62.3584ZM19.4738 67.0693L20.6457 63.126H22.4621L19.9133 70.4502L19.7726 70.7842C19.3937 71.6123 18.7687 72.0264 17.8976 72.0264C17.6515 72.0264 17.4015 71.9893 17.1476 71.915V70.6318L17.4055 70.6377C17.7258 70.6377 17.964 70.5889 18.1203 70.4912C18.2805 70.3936 18.4055 70.2314 18.4953 70.0049L18.6945 69.4834L16.4738 63.126H18.2961L19.4738 67.0693ZM28.8371 66.3545C28.8371 67.3311 28.6144 68.1143 28.1691 68.7041C27.7277 69.29 27.1301 69.583 26.3762 69.583C25.7355 69.583 25.218 69.3604 24.8234 68.915V71.9033H23.1301V63.126H24.7004L24.759 63.7471C25.1691 63.2549 25.7043 63.0088 26.3644 63.0088C27.1457 63.0088 27.7531 63.2979 28.1867 63.876C28.6203 64.4541 28.8371 65.251 28.8371 66.2666V66.3545ZM27.1437 66.2314C27.1437 65.6416 27.0383 65.1865 26.8273 64.8662C26.6203 64.5459 26.3176 64.3857 25.9191 64.3857C25.3879 64.3857 25.0226 64.5889 24.8234 64.9951V67.5908C25.0305 68.0088 25.3996 68.2178 25.9308 68.2178C26.7394 68.2178 27.1437 67.5557 27.1437 66.2314ZM32.8097 69.583C31.8801 69.583 31.1222 69.2979 30.5363 68.7275C29.9543 68.1572 29.6633 67.3975 29.6633 66.4482V66.2842C29.6633 65.6475 29.7863 65.0791 30.0324 64.5791C30.2785 64.0752 30.6262 63.6885 31.0754 63.4189C31.5285 63.1455 32.0441 63.0088 32.6222 63.0088C33.4894 63.0088 34.1711 63.2822 34.6672 63.8291C35.1672 64.376 35.4172 65.1514 35.4172 66.1553V66.8467H31.3801C31.4347 67.2607 31.5988 67.5928 31.8722 67.8428C32.1496 68.0928 32.4992 68.2178 32.9211 68.2178C33.5734 68.2178 34.0832 67.9814 34.4504 67.5088L35.2824 68.4404C35.0285 68.7998 34.6847 69.0811 34.2512 69.2842C33.8176 69.4834 33.3371 69.583 32.8097 69.583ZM32.6164 64.3799C32.2805 64.3799 32.007 64.4932 31.7961 64.7197C31.589 64.9463 31.4562 65.2705 31.3976 65.6924H33.7531V65.5576C33.7453 65.1826 33.6437 64.8936 33.4484 64.6904C33.2531 64.4834 32.9758 64.3799 32.6164 64.3799ZM39.8176 67.7139C39.8176 67.5068 39.714 67.3447 39.507 67.2275C39.3039 67.1064 38.9758 66.999 38.5226 66.9053C37.0148 66.5889 36.2609 65.9482 36.2609 64.9834C36.2609 64.4209 36.4933 63.9521 36.9582 63.5771C37.4269 63.1982 38.0383 63.0088 38.7922 63.0088C39.5969 63.0088 40.2394 63.1982 40.7199 63.5771C41.2043 63.9561 41.4465 64.4482 41.4465 65.0537H39.7531C39.7531 64.8115 39.675 64.6123 39.5187 64.4561C39.3625 64.2959 39.1183 64.2158 38.7863 64.2158C38.5012 64.2158 38.2805 64.2803 38.1242 64.4092C37.968 64.5381 37.8898 64.7021 37.8898 64.9014C37.8898 65.0889 37.9777 65.2412 38.1535 65.3584C38.3332 65.4717 38.634 65.5713 39.0558 65.6572C39.4777 65.7393 39.8332 65.833 40.1222 65.9385C41.0168 66.2666 41.464 66.835 41.464 67.6436C41.464 68.2217 41.216 68.6904 40.7199 69.0498C40.2238 69.4053 39.5832 69.583 38.798 69.583C38.2668 69.583 37.7941 69.4893 37.3801 69.3018C36.9699 69.1104 36.6476 68.8506 36.4133 68.5225C36.1789 68.1904 36.0617 67.833 36.0617 67.4502H37.6672C37.6828 67.751 37.7941 67.9814 38.0012 68.1416C38.2082 68.3018 38.4855 68.3818 38.8332 68.3818C39.1574 68.3818 39.4015 68.3213 39.5656 68.2002C39.7336 68.0752 39.8176 67.9131 39.8176 67.7139ZM45.1965 68.2178C45.509 68.2178 45.7629 68.1318 45.9582 67.96C46.1535 67.7881 46.2551 67.5596 46.2629 67.2744H47.8508C47.8469 67.7041 47.7297 68.0986 47.4992 68.458C47.2687 68.8135 46.9523 69.0908 46.55 69.29C46.1515 69.4854 45.7101 69.583 45.2258 69.583C44.3195 69.583 43.6047 69.2959 43.0812 68.7217C42.5578 68.1436 42.2961 67.3467 42.2961 66.3311V66.2197C42.2961 65.2432 42.5558 64.4639 43.0754 63.8818C43.5949 63.2998 44.3078 63.0088 45.214 63.0088C46.007 63.0088 46.6418 63.2354 47.1183 63.6885C47.5988 64.1377 47.843 64.7373 47.8508 65.4873H46.2629C46.2551 65.1592 46.1535 64.8936 45.9582 64.6904C45.7629 64.4834 45.5051 64.3799 45.1847 64.3799C44.7902 64.3799 44.4914 64.5244 44.2883 64.8135C44.089 65.0986 43.9894 65.5635 43.9894 66.208V66.3838C43.9894 67.0361 44.089 67.5049 44.2883 67.79C44.4875 68.0752 44.7902 68.2178 45.1965 68.2178ZM52.3801 64.7139C52.1496 64.6826 51.9465 64.667 51.7707 64.667C51.1301 64.667 50.7101 64.8838 50.5109 65.3174V69.4658H48.8176V63.126H50.4172L50.464 63.8818C50.8039 63.2998 51.2746 63.0088 51.8762 63.0088C52.0637 63.0088 52.2394 63.0342 52.4035 63.085L52.3801 64.7139ZM54.9875 69.4658H53.2883V63.126H54.9875V69.4658ZM53.1887 61.4854C53.1887 61.2314 53.2726 61.0225 53.4406 60.8584C53.6125 60.6943 53.8449 60.6123 54.1379 60.6123C54.4269 60.6123 54.6574 60.6943 54.8293 60.8584C55.0012 61.0225 55.0871 61.2314 55.0871 61.4854C55.0871 61.7432 54.9992 61.9541 54.8234 62.1182C54.6515 62.2822 54.423 62.3643 54.1379 62.3643C53.8527 62.3643 53.6222 62.2822 53.4465 62.1182C53.2746 61.9541 53.1887 61.7432 53.1887 61.4854ZM62.0949 66.3545C62.0949 67.3311 61.8722 68.1143 61.4269 68.7041C60.9855 69.29 60.3879 69.583 59.634 69.583C58.9933 69.583 58.4758 69.3604 58.0812 68.915V71.9033H56.3879V63.126H57.9582L58.0168 63.7471C58.4269 63.2549 58.9621 63.0088 59.6222 63.0088C60.4035 63.0088 61.0109 63.2979 61.4445 63.876C61.8781 64.4541 62.0949 65.251 62.0949 66.2666V66.3545ZM60.4015 66.2314C60.4015 65.6416 60.2961 65.1865 60.0851 64.8662C59.8781 64.5459 59.5754 64.3857 59.1769 64.3857C58.6457 64.3857 58.2805 64.5889 58.0812 64.9951V67.5908C58.2883 68.0088 58.6574 68.2178 59.1887 68.2178C59.9972 68.2178 60.4015 67.5557 60.4015 66.2314ZM65.1769 61.5674V63.126H66.2609V64.3682H65.1769V67.5322C65.1769 67.7666 65.2219 67.9346 65.3117 68.0361C65.4015 68.1377 65.5734 68.1885 65.8273 68.1885C66.0148 68.1885 66.1808 68.1748 66.3254 68.1475V69.4307C65.9933 69.5322 65.6515 69.583 65.3 69.583C64.1125 69.583 63.507 68.9834 63.4836 67.7842V64.3682H62.5578V63.126H63.4836V61.5674H65.1769Z" fill="#23163B"/>
<path d="M23.7315 31.2114V33.4374H30.8328V53.6488H35.872V33.4374H42.9734V31.2524C42.9734 30.0233 42.9734 29.0264 42.9187 28.999C42.9187 28.9581 38.5897 28.9444 33.332 28.9444L23.7725 28.9854V31.225L23.7315 31.2114ZM55.6465 28.9308C57.0394 29.2585 58.1046 29.8867 59.0606 30.8836C59.5659 31.4299 60.317 32.3858 60.3716 32.6316C60.3716 32.7136 58.0091 34.3114 56.5751 35.199C56.5205 35.24 56.302 35.0079 56.0835 34.6528C55.3734 33.6422 54.6496 33.2052 53.5161 33.1233C51.8773 33.014 50.7848 33.8744 50.7848 35.3083C50.7848 35.7453 50.8668 35.9911 51.0306 36.3462C51.3994 37.0973 52.0822 37.5479 54.1989 38.4766C58.1046 40.1563 59.798 41.2625 60.8223 42.8466C61.9831 44.622 62.2425 47.4079 61.4641 49.4973C60.5901 51.7779 58.4597 53.3211 55.4143 53.8264C54.4584 53.9902 52.2734 53.9629 51.2491 53.7854C49.0641 53.3757 46.9747 52.2832 45.691 50.8766C45.1857 50.3303 44.2161 48.8691 44.2707 48.7735L44.7897 48.4457L46.8381 47.2576L48.3813 46.3563L48.7364 46.8343C49.187 47.5444 50.1976 48.5004 50.7848 48.8281C52.5602 49.7431 54.9364 49.6202 56.1108 48.555C56.6161 48.0907 56.8346 47.5991 56.8346 46.9162C56.8346 46.288 56.739 46.0013 56.4249 45.5233C55.9879 44.9224 55.1139 44.4308 52.6557 43.3383C49.8289 42.1365 48.6271 41.3717 47.5073 40.1973C46.8654 39.4872 46.2782 38.381 46.0051 37.466C45.8002 36.6739 45.732 34.7347 45.9231 33.9563C46.5104 31.225 48.5725 29.3131 51.5223 28.7669C52.4782 28.5757 54.7315 28.6576 55.6738 28.9035L55.6465 28.9308Z" fill="#23163B"/>
</svg>
